<svg width="653" height="571" viewBox="0 0 653 571" fill="none" xmlns="http://www.w3.org/2000/svg">
<g filter="url(#filter0_d_1_98)">
<path d="M564.092 69.4545C494.684 14.6598 410.29 -14.2463 326.49 89.6608C242.668 -14.2463 156.367 14.6598 88.9004 69.4545C16.8364 130.308 3.65762 248.579 90.2742 368.524C145.725 445.315 216.974 506.736 288.363 525.052C300.698 529.184 313.585 531.056 326.49 530.591C339.4 531.057 352.291 529.185 364.63 525.052C436.018 506.736 507.326 445.303 562.707 368.524C649.358 248.579 636.156 130.308 564.092 69.4545Z" fill="white"/>
<path d="M185.584 387.94C185.584 387.94 197.013 377.192 190.274 367.174C190.274 367.174 182.832 355.949 183.478 353.143C183.478 353.143 181.231 350.617 175.811 356.173C175.811 356.173 157.249 374.301 173.2 385.779C173.2 385.779 185.584 391.98 185.696 387.799" fill="#0069AA"/>
<path d="M183.562 390.998C179.64 390.436 175.841 389.212 172.329 387.378C170.286 386.105 168.563 384.381 167.292 382.337C166.022 380.294 165.237 377.986 165 375.592C164.214 365.322 174.099 355.556 174.52 355.163C175.403 354.018 176.507 353.061 177.765 352.348C179.024 351.635 180.412 351.18 181.849 351.01C182.369 350.996 182.886 351.088 183.369 351.281C183.852 351.474 184.29 351.764 184.657 352.132C184.853 352.361 184.982 352.639 185.032 352.935C185.081 353.232 185.049 353.536 184.938 353.816C184.938 355.219 188.224 361.449 191.509 366.416C197.35 374.835 191.509 384.6 187.1 388.866C186.853 389.578 186.364 390.182 185.717 390.572C185.071 390.961 184.308 391.112 183.562 390.998ZM181.849 354.321C181.287 354.321 179.715 354.63 176.963 357.436C176.963 357.436 167.724 366.612 168.37 375.368C168.553 377.247 169.158 379.061 170.14 380.674C171.122 382.287 172.456 383.658 174.042 384.684C177.033 386.208 180.246 387.25 183.562 387.771H183.983C184.029 387.402 184.209 387.062 184.489 386.817C184.91 386.396 194.795 376.855 188.841 368.1C186.286 364.283 182.355 357.885 181.793 354.349L181.849 354.321Z" fill="#221E1F"/>
<path d="M270.868 390.802C270.868 390.802 227.426 399.052 208.892 395.909C208.892 395.909 187.213 392.065 185.444 381.429C185.444 381.429 183.45 378.623 181.119 380.784C181.119 380.784 177.974 382.72 182.972 388.276C182.972 388.276 205.887 416.507 270.25 395.572C270.25 395.572 275.642 393.889 273.62 391.728C273.62 391.728 273.62 389.511 270.812 390.886" fill="#FEC057"/>
<path d="M226.78 404.833C194.795 404.833 182.27 389.848 181.849 389.202C180.84 388.317 180.034 387.224 179.486 385.999C178.938 384.774 178.662 383.445 178.676 382.103C178.736 381.556 178.904 381.027 179.169 380.546C179.434 380.064 179.791 379.64 180.22 379.296C180.984 378.582 181.983 378.173 183.029 378.146C183.786 378.198 184.523 378.419 185.183 378.793C185.844 379.167 186.413 379.684 186.848 380.307L187.072 380.615V380.98C188.364 388.753 203.472 393.103 209.201 394.141C212.657 394.663 216.152 394.898 219.647 394.843C239.136 394.843 267.583 389.651 270.363 389.23C270.773 388.949 271.244 388.768 271.737 388.704C272.231 388.639 272.733 388.693 273.201 388.86C273.67 389.027 274.093 389.303 274.434 389.665C274.775 390.027 275.026 390.465 275.165 390.942C275.414 391.275 275.586 391.659 275.669 392.067C275.751 392.475 275.742 392.896 275.642 393.299C275.052 395.488 271.767 396.695 270.756 397.004C256.593 401.881 241.757 404.523 226.78 404.833ZM181.849 382.047C181.741 382.226 181.674 382.427 181.653 382.636C181.653 383.141 181.653 384.572 184.068 387.126C184.348 387.322 196.423 401.522 226.78 401.522C241.409 401.244 255.905 398.688 269.745 393.945C270.674 393.666 271.548 393.23 272.328 392.654L272.104 392.401V392.037C271.953 392.077 271.811 392.144 271.683 392.233H271.233C270.924 392.233 240.343 398.042 219.675 398.07C215.99 398.113 212.308 397.85 208.667 397.284C207.74 397.116 186.398 393.187 183.983 381.934C183.59 381.513 182.972 381.064 182.242 381.738L181.849 382.047Z" fill="#221E1F"/>
<path d="M334.923 423.578C329.306 411.933 334.277 390.269 334.277 390.269C351.631 331.142 330.121 312.481 330.121 312.481C329.025 311.723 294.541 305.128 294.541 305.128C294.541 305.128 248.684 318.654 246.802 379.072C246.968 383.219 247.391 387.352 248.066 391.447C248.066 391.447 258.147 421.165 286.117 432.39C285.532 434.809 285.69 437.349 286.572 439.677C287.454 442.005 289.017 444.013 291.059 445.439" fill="#FEC057"/>
<path d="M290.104 446.758C287.999 445.28 286.342 443.252 285.312 440.896C284.281 438.541 283.919 435.948 284.263 433.4C256.883 421.67 246.942 393.103 246.437 391.98C245.393 387.761 244.967 383.413 245.173 379.072C247.083 318.121 293.614 303.725 294.176 303.585H294.934C329.671 310.208 330.682 310.909 331.019 311.162C332.086 312.032 353.288 331.282 335.821 390.718C335.821 390.718 331.132 411.877 336.383 422.877L333.575 424.28C327.818 412.269 332.62 390.802 332.816 389.904C348.879 335.183 331.3 315.792 329.334 313.856C326.779 313.042 307.15 309.169 294.766 306.784C290.413 308.215 250.144 323.425 248.403 379.072C248.241 383.084 248.647 387.1 249.61 390.998C249.61 391.167 259.776 420.043 286.706 430.875L288.082 431.408L287.661 432.811C287.178 434.905 287.337 437.096 288.118 439.099C288.9 441.101 290.267 442.821 292.042 444.036L290.104 446.758Z" fill="#221E1F"/>
<path d="M331.272 419.089C333.664 417.874 336.318 417.264 339.001 417.313C341.684 417.362 344.314 418.068 346.661 419.369C346.661 419.369 355.535 424.982 348.823 435.168C346.736 436.905 344.319 438.203 341.718 438.985C341.718 438.985 308.02 451.416 301.955 436.74" fill="#FEC057"/>
<path d="M332.227 419.678C332.227 419.678 322.482 426.525 323.493 442.127C323.493 442.127 344.723 439.321 349.02 432.951C349.922 431.262 350.339 429.356 350.225 427.444C350.111 425.533 349.471 423.69 348.374 422.119C348.374 422.119 342.982 415.637 332.227 419.65" fill="white"/>
<path d="M343.516 370.064C343.516 370.064 339.64 389.062 333.406 392.682C333.406 392.682 304.313 417.152 246.858 379.381C245.847 366.893 251.239 351.01 251.239 351.01C251.239 351.01 258.091 324.182 281.708 312.649C281.708 312.649 303.948 341.581 333.097 323.874C335.47 324.203 337.816 324.7 340.118 325.361C342.729 340.179 343.867 355.219 343.516 370.26" fill="#004B86"/>
<path d="M305.746 402.083C287.633 402.083 267.526 394.899 245.96 380.728L245.286 380.279V379.521C244.275 366.809 249.554 351.094 249.779 350.421C250.003 349.747 257.024 322.892 281.062 311.134L282.241 310.544L282.943 311.723C282.943 311.891 295.749 328.055 313.833 328.055C320.338 327.913 326.677 325.97 332.142 322.443L332.648 322.162H333.21C335.68 322.473 338.121 322.979 340.511 323.677L341.409 323.986L341.578 324.912C344.2 339.805 345.347 354.919 345.004 370.036C344.555 372.309 340.82 389.904 334.249 393.917C333.181 394.955 323.69 402.083 305.746 402.083ZM248.403 378.483C269.183 392.009 288.475 398.856 305.746 398.856C323.016 398.856 332.283 391.532 332.395 391.447C337.197 388.641 340.82 374.835 341.915 369.755C342.216 355.28 341.134 340.81 338.686 326.54C336.944 326.063 334.501 325.67 333.434 325.501C327.565 329.098 320.83 331.038 313.945 331.114C296.759 331.114 284.572 318.374 281.286 314.557C259.495 325.95 252.868 351.038 252.812 351.29C252.755 351.543 247.729 366.556 248.403 378.483Z" fill="#221E1F"/>
<path d="M287.099 440.528C292.716 455.429 325.824 444.316 325.824 444.316C328.398 443.643 330.807 442.449 332.901 440.809C339.753 430.931 331.272 424.925 331.272 424.925C329.046 423.534 326.504 422.728 323.882 422.58C321.261 422.433 318.644 422.95 316.276 424.084" fill="#FEC057"/>
<path d="M317.147 424.673C317.147 424.673 307.459 431.127 307.964 446.758C307.964 446.758 328.773 444.906 333.238 438.592C334.168 436.921 334.63 435.03 334.576 433.119C334.521 431.208 333.952 429.347 332.929 427.732C332.929 427.732 327.874 421.165 317.147 424.673Z" fill="white"/>
<path d="M319.197 423.606C313.159 417.433 313.721 401.157 313.749 400.427H316.978C316.81 404.749 317.287 416.928 321.499 421.249L319.197 423.606Z" fill="#221E1F"/>
<path d="M398.078 199.166C398.078 199.166 400.887 164.032 355.141 155.782C355.141 155.782 316.838 150.703 309.144 144.922C309.144 144.922 295.805 134.567 299.315 122.472C299.315 122.472 270.278 132.322 268.79 168.326C268.79 168.326 237.704 176.211 230.88 204.806C230.88 204.806 220.349 232.223 237.254 255.515C237.254 255.515 237.254 257.956 233.716 256.637C233.716 256.637 221.922 251.726 221.641 246.928C221.641 246.928 206.589 275.803 235.682 304.96C235.682 304.96 265.757 328.729 318.832 315.82C318.832 315.82 357.332 348.821 395.607 341.553C395.607 341.553 432.45 335.014 424.756 294.801C424.756 294.801 422.201 284.39 416.331 279.592C416.331 279.592 445.565 268.058 442.925 236.629C442.925 236.629 434.079 188.923 397.994 198.997" fill="#0069AA"/>
<path d="M384.234 344.387C352.109 344.387 323.128 321.657 318.382 317.756C308.431 320.16 298.235 321.403 287.998 321.46C254.047 321.46 235.401 307.008 234.643 306.391C204.876 276.617 219.956 246.647 220.124 246.366C220.288 246.053 220.549 245.802 220.868 245.65C221.187 245.498 221.547 245.454 221.894 245.524C222.239 245.598 222.55 245.784 222.779 246.053C223.007 246.322 223.14 246.659 223.157 247.012C223.298 249.593 229.869 253.494 234.25 255.43C234.558 255.532 234.88 255.588 235.204 255.599C219.057 232.139 228.942 205.592 229.391 204.47C235.569 178.512 261.461 169.055 267.274 167.231C269.239 131.424 298.416 121.097 298.725 120.901C299.004 120.806 299.304 120.79 299.591 120.854C299.878 120.918 300.142 121.061 300.354 121.265C300.568 121.472 300.723 121.731 300.802 122.018C300.881 122.304 300.881 122.606 300.803 122.893C297.63 133.697 309.93 143.491 310.07 143.575C316.08 148.149 344.723 152.807 355.254 154.182C395.27 161.394 399.314 189.063 399.623 197.117C402.254 196.492 404.949 196.172 407.654 196.163C436.747 196.163 444.497 236.124 444.582 236.516C446.884 263.681 426.104 276.673 419.308 280.237C422.576 284.493 424.91 289.388 426.16 294.605C428.659 307.626 426.918 318.542 420.993 327.129C414.845 335.445 405.848 341.209 395.72 343.321C391.932 344.028 388.087 344.385 384.234 344.387ZM318.776 314.529C319.167 314.53 319.545 314.669 319.843 314.922C320.152 315.175 351.07 341.3 384.234 341.3C387.941 341.261 391.635 340.876 395.27 340.15C404.521 338.112 412.738 332.837 418.438 325.277C423.829 317.419 425.402 307.317 423.099 295.278C423.099 295.278 420.6 285.401 415.349 281.023C415.131 280.841 414.965 280.606 414.866 280.34C414.768 280.074 414.74 279.787 414.787 279.508C414.827 279.233 414.94 278.975 415.112 278.758C415.285 278.541 415.512 278.374 415.77 278.273C416.921 277.824 443.852 266.739 441.38 236.937C441.38 236.713 434.079 199.362 407.682 199.362C404.554 199.399 401.446 199.862 398.443 200.737C398.193 200.806 397.93 200.814 397.676 200.76C397.422 200.706 397.184 200.593 396.983 200.429C396.789 200.258 396.635 200.046 396.533 199.808C396.431 199.57 396.383 199.312 396.393 199.054C396.393 197.679 398.556 165.379 354.804 157.381C353.148 157.185 316.052 152.162 308.217 146.157C307.655 145.708 296.142 136.587 297.209 125.082C290.132 128.449 271.598 139.955 270.447 168.382C270.432 168.73 270.302 169.064 270.079 169.333C269.856 169.601 269.551 169.79 269.211 169.869C268.931 169.869 238.995 177.895 232.48 205.255C232.312 205.732 222.399 232.363 238.574 254.645C238.774 254.901 238.883 255.217 238.883 255.543C238.895 256.367 238.582 257.163 238.013 257.759C237.338 258.293 236.524 258.621 235.668 258.706C234.811 258.79 233.949 258.627 233.182 258.237C228.927 256.575 225.049 254.075 221.781 250.884C218.973 258.938 214.143 281.135 236.861 303.894C236.861 303.894 255.367 318.149 288.11 318.149C298.318 318.148 308.49 316.932 318.411 314.529H318.776Z" fill="#221E1F"/>
<path d="M379.039 225.432C379.039 225.432 406.699 253.494 395.888 299.544C395.888 299.544 387.042 338.27 349.497 338.298C349.497 338.298 253.738 338.466 261.77 272.492C263.34 259.486 268.291 247.117 276.129 236.616C283.967 226.115 294.42 217.847 306.448 212.636C306.448 212.636 346.885 196.64 379.039 225.432Z" fill="#FEC057"/>
<path d="M349.553 339.925C347.363 339.925 295.664 339.617 271.654 312.509C262.107 301.761 258.259 288.235 260.197 272.324C260.197 271.959 263.707 229.445 305.802 211.148C314.516 208.089 323.692 206.551 332.929 206.602C350.327 206.283 367.195 212.594 380.106 224.253C380.443 224.59 408.356 253.438 397.517 300.021C397.432 300.33 387.941 339.785 349.553 339.925ZM332.929 209.829C324.119 209.806 315.367 211.257 307.037 214.123C266.852 231.606 263.455 272.211 263.426 272.632C261.601 287.674 265.168 300.358 274.069 310.376C297.125 336.389 349.02 336.698 349.553 336.698C385.329 336.698 394.007 300.723 394.484 299.207C404.93 254.308 378.253 226.863 378 226.582C365.653 215.476 349.537 209.486 332.929 209.829Z" fill="#221E1F"/>
<path d="M313.833 313.575C307.15 310.769 302.853 304.399 304.847 297.552C305.823 294.255 308.069 291.48 311.092 289.838C314.115 288.196 317.667 287.821 320.966 288.796C323.52 289.381 325.828 290.747 327.569 292.703C329.31 294.66 330.398 297.109 330.682 299.712L331.665 300.049C333.22 297.986 335.389 296.467 337.861 295.711C340.333 294.955 342.981 295 345.425 295.84C347.121 296.248 348.717 296.996 350.117 298.038C351.516 299.08 352.689 300.394 353.566 301.901C354.443 303.409 355.005 305.078 355.219 306.809C355.433 308.539 355.293 310.295 354.809 311.97C354.325 313.646 353.506 315.206 352.402 316.556C351.298 317.906 349.932 319.019 348.386 319.827C346.84 320.635 345.146 321.122 343.406 321.258C341.667 321.394 339.917 321.177 338.264 320.619C334.244 319.511 330.376 317.909 326.751 315.848C322.358 315.712 318.008 314.947 313.833 313.575Z" fill="white"/>
<path d="M331.946 300.666L341.101 295.559C341.971 294.689 340.904 292.304 340.904 292.304L327.874 288.572C327.874 288.572 325.684 290.031 325.965 291.378L331.047 300.498L331.946 300.666Z" fill="#221E1F"/>
<path d="M303.106 198.268C292.244 202.772 281.747 208.11 271.711 214.235C271.711 214.235 266.094 205.311 270.447 197.23C270.447 197.23 280.613 184.321 294.71 189.372C296.702 190.111 298.498 191.297 299.958 192.84C301.419 194.382 302.505 196.239 303.134 198.268" fill="#FEC057"/>
<path d="M271.711 215.835H271.374C270.947 215.734 270.575 215.472 270.335 215.105C270.082 214.712 264.297 205.311 269.043 196.472V196.247C269.38 195.854 276.765 186.594 287.998 186.594C290.42 186.615 292.822 187.042 295.103 187.857C297.286 188.697 299.25 190.02 300.85 191.725C302.45 193.431 303.643 195.475 304.342 197.707C304.5 198.098 304.497 198.535 304.334 198.924C304.171 199.313 303.861 199.622 303.471 199.783C292.791 204.264 282.464 209.545 272.581 215.582C272.319 215.744 272.018 215.832 271.711 215.835ZM271.711 198.128C270.755 200.314 270.302 202.687 270.384 205.071C270.467 207.455 271.083 209.791 272.188 211.906C281.363 206.421 290.905 201.573 300.747 197.398C299.543 194.536 297.265 192.259 294.401 191.056C292.429 190.338 290.349 189.968 288.251 189.961C279.208 189.821 272.722 197.173 271.935 198.128H271.711Z" fill="#221E1F"/>
<path d="M293.895 203.207C293.502 203.219 293.119 203.078 292.828 202.814C290.765 201.158 288.375 199.957 285.815 199.289C283.255 198.622 280.582 198.503 277.973 198.941C277.768 198.991 277.555 198.999 277.347 198.965C277.139 198.93 276.94 198.855 276.762 198.742C276.584 198.63 276.43 198.482 276.31 198.309C276.19 198.136 276.106 197.941 276.063 197.735C276.013 197.528 276.005 197.314 276.039 197.104C276.073 196.895 276.148 196.694 276.261 196.514C276.373 196.333 276.52 196.177 276.694 196.054C276.867 195.932 277.063 195.845 277.271 195.798C280.371 195.236 283.556 195.354 286.606 196.143C289.656 196.933 292.498 198.376 294.934 200.372C295.096 200.51 295.229 200.678 295.325 200.867C295.421 201.056 295.479 201.262 295.495 201.474C295.51 201.685 295.484 201.898 295.416 202.099C295.349 202.3 295.242 202.486 295.103 202.646C294.954 202.82 294.768 202.961 294.56 203.058C294.352 203.154 294.125 203.205 293.895 203.207Z" fill="#221E1F"/>
<path d="M393.389 219.96C401.505 228.451 408.959 237.551 415.686 247.18C415.686 247.18 424.391 241.259 423.605 232.111C423.605 232.111 419.449 216.228 404.537 215.273C402.418 215.168 400.303 215.551 398.355 216.393C396.407 217.235 394.679 218.513 393.305 220.128" fill="#FEC057"/>
<path d="M415.686 248.695H415.349C414.923 248.592 414.552 248.331 414.31 247.966C407.638 238.465 400.249 229.487 392.209 221.11C391.921 220.808 391.76 220.406 391.76 219.988C391.76 219.57 391.921 219.168 392.209 218.865C393.674 217.258 395.443 215.956 397.415 215.036C399.386 214.116 401.521 213.596 403.695 213.506C404.05 213.483 404.406 213.483 404.762 213.506C420.516 214.572 425.093 231.409 425.149 231.578C425.205 231.746 425.149 231.774 425.149 231.858C425.964 241.848 416.893 248.134 416.5 248.415C416.257 248.577 415.977 248.674 415.686 248.695ZM395.663 220.044C403.039 227.778 409.861 236.02 416.079 244.711C417.929 243.209 419.421 241.314 420.446 239.163C421.471 237.013 422.003 234.661 422.004 232.279C421.555 230.708 417.455 217.603 404.425 216.705H403.695C400.709 216.842 397.866 218.024 395.663 220.044Z" fill="#221E1F"/>
<path d="M417.09 230.932C416.747 230.928 416.414 230.821 416.135 230.623C413.92 229.176 411.423 228.216 408.809 227.804C406.195 227.393 403.523 227.541 400.971 228.238C400.76 228.333 400.532 228.381 400.302 228.381C400.071 228.381 399.843 228.331 399.633 228.236C399.423 228.142 399.235 228.003 399.082 227.83C398.93 227.657 398.816 227.454 398.748 227.234C398.68 227.014 398.659 226.782 398.687 226.553C398.716 226.324 398.792 226.104 398.912 225.907C399.032 225.71 399.193 225.541 399.383 225.411C399.573 225.28 399.789 225.192 400.016 225.151C403.046 224.293 406.226 224.099 409.337 224.584C412.449 225.068 415.419 226.219 418.044 227.958C418.384 228.219 418.609 228.602 418.672 229.026C418.735 229.45 418.631 229.882 418.381 230.231C418.24 230.444 418.048 230.619 417.823 230.741C417.598 230.864 417.346 230.929 417.09 230.932Z" fill="#221E1F"/>
<path d="M391.563 217.518C391.563 217.518 387.576 259.443 337.815 252.259C337.815 252.259 339.107 230.82 327.958 225.853C327.958 225.853 307.852 216.817 312.317 203.01C312.317 203.01 313.833 196.472 318.495 196.135" fill="#0069AA"/>
<path d="M348.795 254.701C345.035 254.686 341.282 254.405 337.562 253.859C337.163 253.791 336.803 253.579 336.549 253.264C336.296 252.948 336.167 252.551 336.186 252.147C336.186 251.951 337.31 231.774 327.284 227.34C326.414 226.947 305.942 217.518 310.772 202.505C310.772 202.309 312.598 194.928 318.382 194.536C318.593 194.52 318.804 194.547 319.004 194.613C319.204 194.68 319.389 194.785 319.548 194.923C319.707 195.062 319.838 195.23 319.932 195.419C320.025 195.607 320.081 195.813 320.095 196.023C320.119 196.449 319.978 196.867 319.701 197.191C319.423 197.515 319.032 197.72 318.607 197.763C315.209 197.987 313.917 203.375 313.889 203.375C309.902 215.779 328.436 224.309 328.604 224.366C338.966 228.968 339.556 245.693 339.472 250.856C354.552 252.792 366.683 250.239 375.613 243.251C383.458 236.709 388.592 227.489 390.019 217.378C390.036 217.165 390.096 216.958 390.195 216.768C390.294 216.579 390.43 216.411 390.595 216.275C390.76 216.139 390.951 216.038 391.156 215.976C391.36 215.915 391.576 215.896 391.788 215.919C392.216 215.962 392.609 216.171 392.882 216.502C393.156 216.834 393.287 217.259 393.248 217.687C391.782 228.671 386.215 238.695 377.663 245.749C369.348 251.944 359.159 255.103 348.795 254.701Z" fill="#221E1F"/>
<path d="M318.944 283.829C317.992 283.811 317.046 283.66 316.136 283.38C308.245 280.995 305.437 269.349 305.324 268.9C305.27 268.695 305.258 268.482 305.288 268.272C305.319 268.063 305.391 267.862 305.501 267.681C305.611 267.5 305.757 267.343 305.929 267.22C306.102 267.097 306.297 267.01 306.504 266.964C306.71 266.914 306.925 266.906 307.135 266.94C307.344 266.974 307.545 267.049 307.726 267.161C307.906 267.274 308.062 267.421 308.185 267.594C308.308 267.767 308.395 267.963 308.441 268.171C308.441 268.171 310.969 278.469 317.091 280.293C320.376 281.304 324.336 279.676 328.829 275.467C328.976 275.313 329.152 275.191 329.348 275.107C329.543 275.024 329.753 274.98 329.966 274.98C330.179 274.98 330.389 275.024 330.585 275.107C330.78 275.191 330.957 275.313 331.103 275.467C331.254 275.615 331.373 275.792 331.454 275.987C331.536 276.183 331.578 276.392 331.578 276.603C331.578 276.815 331.536 277.024 331.454 277.219C331.373 277.414 331.254 277.591 331.103 277.74C327.971 281.238 323.624 283.415 318.944 283.829Z" fill="#221E1F"/>
<path d="M355.703 292.079C353.741 292.141 351.799 291.665 350.087 290.704C344.47 287.533 343.853 280.125 343.824 279.816C343.805 279.606 343.828 279.394 343.891 279.193C343.954 278.991 344.056 278.804 344.192 278.643C344.328 278.481 344.494 278.347 344.682 278.25C344.869 278.153 345.074 278.094 345.285 278.076C345.711 278.045 346.133 278.179 346.463 278.451C346.793 278.723 347.004 279.111 347.054 279.536C347.195 281.188 347.683 282.791 348.486 284.242C349.289 285.693 350.39 286.958 351.715 287.954C354.524 289.526 358.315 289.161 363.117 286.86C363.303 286.692 363.526 286.569 363.767 286.502C364.009 286.434 364.263 286.423 364.51 286.47C364.756 286.516 364.989 286.619 365.189 286.77C365.389 286.921 365.552 287.117 365.664 287.341C365.776 287.565 365.835 287.812 365.836 288.063C365.837 288.314 365.779 288.562 365.669 288.787C365.558 289.012 365.397 289.208 365.198 289.361C364.999 289.513 364.767 289.618 364.521 289.666C361.791 291.098 358.782 291.922 355.703 292.079Z" fill="#221E1F"/>
<path d="M387.829 356.847C387.829 356.847 351.94 369.727 374.462 414.963C374.462 414.963 386.649 435.308 387.014 441.286L388.053 440.556C388.053 440.556 415.686 420.604 406.25 390.044C406.25 390.044 396.955 360.635 397.826 356.089L387.829 356.847Z" fill="#FFC424"/>
<path d="M387.014 442.913C386.77 442.914 386.529 442.857 386.312 442.745C386.056 442.617 385.836 442.427 385.674 442.191C385.512 441.956 385.413 441.683 385.385 441.398C385.133 436.796 376.427 421.361 373.086 415.777C365.054 399.698 363.341 385.835 367.891 374.47C369.704 370.16 372.352 366.251 375.682 362.966C379.012 359.682 382.959 357.087 387.295 355.331C387.434 355.305 387.577 355.305 387.716 355.331L397.769 354.602C398.016 354.585 398.262 354.624 398.491 354.717C398.719 354.809 398.924 354.952 399.089 355.135C399.254 355.326 399.375 355.55 399.443 355.793C399.511 356.035 399.524 356.29 399.482 356.538C398.865 359.541 404.256 378.455 407.907 389.679C417.567 420.941 389.401 441.763 389.12 441.959L388.053 442.689C387.741 442.876 387.376 442.954 387.014 442.913ZM388.194 358.446C380.418 361.757 374.221 367.939 370.895 375.704C366.683 386.172 368.396 399.136 375.922 414.234C376.989 416.002 385.75 430.762 388.053 438.479C392.715 434.663 412.681 416.395 404.706 390.549C403.302 386.116 396.871 365.462 396.281 357.857L388.194 358.446Z" fill="#221E1F"/>
<path d="M406.952 415.188C412.934 410.277 424.222 407.695 424.222 407.695V402.42C404.79 389.006 402.206 374.021 402.206 374.021C402.206 374.021 392.209 372.169 396.113 399.641C400.016 427.114 397.545 419.285 406.952 415.188Z" fill="#FFC424"/>
<path d="M405.773 420.828L402.768 419.65L404.902 414.206L405.239 413.925C410.288 410.419 415.944 407.878 421.92 406.432V403.261C402.768 389.736 400.016 374.919 399.904 374.301L403.077 373.74C403.077 373.88 405.885 388.276 424.447 401.101L425.149 401.578V408.986L423.914 409.267C418.116 410.606 412.595 412.942 407.598 416.17L405.773 420.828Z" fill="#221E1F"/>
<path d="M369.463 402.672C370.93 401.305 372.099 399.649 372.896 397.81C373.694 395.97 374.102 393.985 374.097 391.98C374.211 389.644 373.739 387.317 372.724 385.209C371.709 383.102 370.182 381.282 368.284 379.914C368.284 379.914 364.38 386.452 369.21 401.746L369.463 402.672Z" fill="#F89727"/>
<path d="M368.677 405.619L367.666 402.223C362.667 386.424 366.739 379.381 366.908 379.1L367.778 377.641L369.182 378.567C371.292 380.086 372.987 382.11 374.111 384.454C375.234 386.797 375.751 389.385 375.613 391.98C375.624 394.209 375.17 396.416 374.28 398.459C373.39 400.503 372.085 402.339 370.446 403.851L368.677 405.619ZM369.014 382.608C367.929 388.227 368.336 394.032 370.193 399.445C371.888 396.903 372.691 393.872 372.478 390.825C372.265 387.779 371.046 384.889 369.014 382.608Z" fill="#221E1F"/>
<path d="M366.178 348.512C366.178 348.512 360.337 288.824 436.915 310.208C436.915 310.208 421.695 340.851 398.668 360.719L366.178 348.512Z" fill="#FFC424"/>
<path d="M398.668 362.431C398.483 362.473 398.291 362.473 398.106 362.431L365.616 350.028C365.332 349.926 365.083 349.746 364.898 349.507C364.714 349.268 364.602 348.981 364.577 348.681C364.577 347.895 362.836 329.374 374.714 316.297C386.593 303.22 408.019 300.498 437.393 308.636C437.62 308.702 437.831 308.817 438.009 308.973C438.188 309.129 438.33 309.321 438.427 309.538C438.523 309.754 438.571 309.989 438.567 310.226C438.563 310.463 438.507 310.696 438.404 310.909C438.404 311.218 422.79 342.086 399.791 362.038C399.479 362.304 399.078 362.444 398.668 362.431ZM367.778 347.362L398.387 358.979C417.399 342.142 431.046 317.897 434.613 311.274C407.598 304.118 388.025 306.588 377.186 318.486C367.694 328.813 367.554 343.489 367.722 347.362H367.778Z" fill="#221E1F"/>
<path d="M400.887 361.842C400.887 361.842 373.423 346.211 363.903 347.558L360.533 351.767C360.533 351.767 358.708 364.339 361.207 368.605L362.33 370.064C362.33 370.064 390.412 362.038 397.629 365.181L400.887 361.842Z" fill="#8DC63F"/>
<path d="M361.825 371.944L360.028 369.587C357.219 364.788 358.848 352.75 359.045 351.543V351.094L363.089 346.071H363.734C373.619 344.612 400.662 359.905 401.757 360.523L403.554 361.561L397.938 367.174L396.899 366.725C395.508 366.256 394.04 366.056 392.574 366.135C382.296 366.135 362.864 371.748 362.695 371.748L361.825 371.944ZM362.19 352.441C361.572 357.155 361.151 365.041 362.695 367.847L363.032 368.296C367.329 367.089 383.335 362.88 392.771 362.88C394.303 362.844 395.833 363.014 397.32 363.385L398.359 362.235C392.322 358.923 373.086 348.709 364.858 349.102L362.19 352.441Z" fill="#221E1F"/>
<path d="M392.687 361.758C392.687 361.758 396.225 342.591 427.115 351.711C427.115 351.711 416.472 376.771 392.687 361.758Z" fill="#8DC63F"/>
<path d="M407.065 368.156C401.617 367.957 396.339 366.215 391.844 363.133L390.918 362.543L391.114 361.477C391.114 361.477 393.922 347.446 412.119 347.446C417.363 347.559 422.564 348.418 427.564 350L429.305 350.533L428.603 352.188C428.322 352.974 421.695 368.156 407.065 368.156ZM394.568 361.028C398.297 363.464 402.614 364.851 407.065 365.041C416.949 365.041 422.762 356.622 424.784 352.806C420.668 351.591 416.41 350.921 412.119 350.813C399.286 350.813 395.523 358.222 394.568 361.028Z" fill="#221E1F"/>
<path d="M401.476 336.53C395.86 336.53 392.069 335.071 390.019 332.377C389.356 331.492 388.89 330.476 388.653 329.397C388.416 328.317 388.412 327.2 388.643 326.119C388.775 325.729 389.049 325.404 389.411 325.208C389.773 325.013 390.196 324.961 390.594 325.064C390.992 325.168 391.337 325.417 391.559 325.764C391.78 326.111 391.862 326.528 391.788 326.933C391.671 327.548 391.685 328.181 391.83 328.791C391.975 329.4 392.248 329.972 392.631 330.468C394.035 332.264 397.124 333.275 401.504 333.275C401.896 333.326 402.255 333.518 402.516 333.815C402.776 334.112 402.92 334.493 402.92 334.888C402.92 335.283 402.776 335.664 402.516 335.961C402.255 336.258 401.896 336.45 401.504 336.502L401.476 336.53Z" fill="#221E1F"/>
<path d="M379.32 328.953H378.449C375.641 328.504 373.366 326.147 371.682 321.769C371.525 321.371 371.533 320.927 371.705 320.535C371.876 320.143 372.196 319.835 372.594 319.679C372.993 319.522 373.437 319.531 373.829 319.702C374.222 319.873 374.53 320.192 374.686 320.591C375.557 322.779 376.961 325.445 378.927 325.754C380.892 326.063 382.998 323.986 383.616 323.228C383.747 323.063 383.91 322.927 384.095 322.826C384.279 322.725 384.482 322.662 384.692 322.641C384.902 322.62 385.113 322.641 385.314 322.704C385.515 322.766 385.702 322.868 385.863 323.004C386.029 323.133 386.168 323.293 386.272 323.476C386.376 323.658 386.443 323.86 386.469 324.068C386.495 324.277 386.479 324.488 386.424 324.691C386.368 324.893 386.273 325.083 386.144 325.249C385.306 326.284 384.272 327.144 383.101 327.78C381.93 328.415 380.645 328.814 379.32 328.953Z" fill="#221E1F"/>
<path d="M417.427 322.05C417.062 326.736 411.417 330.132 404.79 329.626C398.163 329.121 393.08 324.94 393.557 320.254C394.035 315.567 399.567 312.172 406.194 312.649C412.821 313.126 417.904 317.363 417.427 322.05Z" fill="#221E1F"/>
<path d="M406.082 331.366H404.649C397.152 330.777 391.395 325.754 391.816 320.142C392.237 314.529 398.556 310.544 406.194 311.077C409.532 311.28 412.732 312.483 415.377 314.529C416.562 315.407 417.515 316.562 418.151 317.892C418.787 319.223 419.088 320.689 419.027 322.162C418.634 327.382 413.074 331.366 406.082 331.366ZM404.79 314.277C399.567 314.277 395.298 317.083 395.046 320.422C394.793 323.762 399.286 327.662 404.902 328.083C410.519 328.504 415.517 325.698 415.798 321.994C415.821 321.035 415.608 320.086 415.177 319.229C414.746 318.373 414.111 317.636 413.327 317.083C411.217 315.403 408.635 314.422 405.941 314.277H404.79Z" fill="#221E1F"/>
<path d="M378.421 301.985C375.613 304.286 376.006 309.394 379.292 313.379C382.577 317.363 387.548 318.654 390.356 316.185C393.164 313.715 392.771 308.748 389.457 304.792C386.144 300.835 381.229 299.628 378.421 301.985Z" fill="#221E1F"/>
<path d="M386.846 319.103C385.121 319.019 383.435 318.568 381.899 317.779C380.364 316.99 379.015 315.882 377.944 314.529C375.802 312.086 374.694 308.906 374.855 305.661C374.919 304.735 375.168 303.83 375.588 303.001C376.007 302.172 376.589 301.436 377.298 300.835C378.542 299.824 380.104 299.287 381.707 299.319C383.441 299.413 385.134 299.881 386.671 300.689C388.207 301.498 389.551 302.63 390.609 304.006C394.512 308.72 394.821 314.726 391.255 317.672C390.003 318.659 388.439 319.167 386.846 319.103ZM381.707 302.434C380.85 302.397 380.011 302.677 379.348 303.22C378.969 303.551 378.662 303.956 378.445 304.409C378.227 304.863 378.105 305.356 378.084 305.858C378.004 308.237 378.838 310.556 380.415 312.34C381.178 313.346 382.145 314.179 383.254 314.784C384.362 315.388 385.587 315.751 386.846 315.848C387.696 315.878 388.531 315.61 389.205 315.09C391.283 313.35 390.805 309.169 388.109 305.97C387.352 304.963 386.391 304.126 385.287 303.517C384.183 302.908 382.963 302.539 381.707 302.434Z" fill="#221E1F"/>
<path d="M398.809 319.412C398.551 319.417 398.298 319.349 398.078 319.215L388.025 314.052C387.647 313.849 387.363 313.507 387.232 313.099C387.101 312.691 387.134 312.248 387.323 311.863C387.421 311.677 387.554 311.512 387.716 311.377C387.877 311.243 388.064 311.141 388.265 311.079C388.465 311.016 388.677 310.994 388.886 311.013C389.096 311.032 389.299 311.092 389.485 311.19L399.539 316.353C399.854 316.524 400.105 316.793 400.251 317.12C400.397 317.448 400.432 317.814 400.348 318.163C400.265 318.511 400.069 318.823 399.791 319.048C399.512 319.274 399.167 319.402 398.809 319.412Z" fill="#221E1F"/>
<path d="M390.524 309.899C390.326 310.289 389.981 310.584 389.566 310.721C389.15 310.857 388.697 310.824 388.306 310.628C388.112 310.528 387.939 310.39 387.799 310.222C387.658 310.055 387.552 309.861 387.487 309.652C387.421 309.443 387.398 309.224 387.418 309.006C387.438 308.788 387.501 308.577 387.604 308.383C387.702 308.19 387.837 308.019 388.002 307.878C388.168 307.738 388.359 307.632 388.566 307.567C388.772 307.502 388.99 307.478 389.206 307.498C389.421 307.518 389.631 307.58 389.822 307.682C390.207 307.885 390.497 308.232 390.628 308.647C390.76 309.061 390.722 309.511 390.524 309.899Z" fill="white"/>
<path d="M415.236 317.784C415.033 317.739 414.822 317.739 414.619 317.784C414.37 317.786 414.127 317.854 413.914 317.983C413.701 318.111 413.528 318.295 413.411 318.514C413.271 318.856 413.271 319.239 413.411 319.58C413.531 319.909 413.772 320.18 414.085 320.338C414.242 320.421 414.413 320.473 414.59 320.49C414.766 320.506 414.945 320.488 415.114 320.436C415.284 320.384 415.441 320.299 415.578 320.186C415.715 320.073 415.828 319.934 415.91 319.777C416.035 319.442 416.035 319.073 415.91 318.738C415.871 318.541 415.791 318.354 415.675 318.19C415.559 318.025 415.409 317.887 415.236 317.784Z" fill="white"/>
<path d="M388.896 361.253C388.896 361.253 348.205 348.653 338.742 337.54C338.742 337.54 358.399 380.026 384.543 388.922" fill="#FFC424"/>
<path d="M384.543 390.549H384.009C357.5 381.513 338.096 340.038 337.281 338.27C337.118 337.919 337.088 337.52 337.197 337.149C337.305 336.777 337.545 336.458 337.871 336.249C338.201 336.04 338.595 335.955 338.982 336.012C339.368 336.069 339.722 336.262 339.977 336.558C349.02 347.221 388.98 359.681 389.373 359.793C389.579 359.851 389.772 359.949 389.938 360.084C390.105 360.218 390.242 360.385 390.342 360.574C390.442 360.763 390.502 360.97 390.519 361.184C390.536 361.397 390.509 361.611 390.44 361.814C390.379 362.018 390.278 362.207 390.143 362.372C390.008 362.536 389.842 362.672 389.653 362.771C389.465 362.871 389.259 362.931 389.047 362.95C388.835 362.969 388.621 362.945 388.418 362.88C386.986 362.431 358.399 353.535 343.796 343.91C350.564 356.201 366.262 381.064 385.048 387.491C385.396 387.625 385.687 387.875 385.872 388.198C386.058 388.521 386.127 388.898 386.068 389.266C386.009 389.634 385.825 389.971 385.547 390.219C385.27 390.468 384.915 390.614 384.543 390.634V390.549Z" fill="#221E1F"/>
<path d="M312.57 378.651L305.156 377.893L306.335 369.811L305.633 369.727L304.454 377.837L297.04 377.051L300.466 353.395L307.88 354.181L306.813 361.589L307.515 361.673L308.61 354.237L315.995 354.995L312.57 378.651Z" fill="#002248"/>
<path d="M322.398 379.689L315.013 378.904L316.445 369.138L313.272 354.714L321.443 355.584L321.865 358.39L323.072 355.724L331.356 356.594L323.83 369.952L322.398 379.689Z" fill="#002248"/>
<path d="M333.49 381.12C333.201 381.147 332.909 381.147 332.62 381.12C331.725 381.052 330.855 380.8 330.062 380.38C329.27 379.96 328.573 379.381 328.014 378.679C327.147 377.277 326.571 375.714 326.32 374.085C326.069 372.455 326.149 370.792 326.554 369.194L328.436 356.342L335.849 357.127L333.912 370.485C333.777 371.321 333.777 372.174 333.912 373.01C334.285 372.184 334.522 371.303 334.614 370.401L336.523 357.183L343.937 357.941L341.915 370.99C340.651 379.802 336.102 381.12 333.49 381.12Z" fill="#002248"/>
<path d="M305.409 356.089L304.314 363.526L309.368 364.059L310.463 356.622L313.496 356.931L310.688 376.266L307.627 375.957L308.835 367.847L303.78 367.314L302.601 375.452L299.512 375.143L302.32 355.78L305.409 356.089Z" fill="white"/>
<path d="M317.512 376.995L318.663 369.082L316.052 357.212L319.534 357.548L320.264 362.235L320.769 366.051C321.247 364.901 321.724 363.806 322.314 362.459L324.364 357.941L327.818 358.306L321.724 369.25L320.573 377.304L317.512 376.995Z" fill="white"/>
<path d="M333.49 359.008L331.862 370.232C331.384 373.572 331.862 375.368 333.575 375.536C335.288 375.704 336.383 374.161 336.804 370.766L338.433 359.541L341.466 359.849L339.781 370.653C338.938 376.602 336.383 379.24 332.873 378.875C329.362 378.511 327.874 375.62 328.716 369.475L330.289 358.671L333.49 359.008Z" fill="white"/>
<path d="M391.423 357.885C391.423 357.885 372.327 368.717 396.309 385.218C396.309 385.218 413.158 369.082 391.423 357.885Z" fill="#8DC63F"/>
<path d="M396.478 387.294L395.27 386.565C386.537 380.531 382.24 374.442 382.493 368.436C382.83 360.916 390.187 356.65 390.524 356.482L391.283 356.033L392.041 356.426C399.174 360.074 403.273 364.676 403.947 370.092C405.211 378.763 397.629 386.087 397.32 386.396L396.478 387.294ZM391.507 359.737C389.983 360.719 388.692 362.021 387.722 363.553C386.752 365.084 386.127 366.808 385.891 368.605C385.722 373.179 389.148 378.062 396.141 383.085C397.938 381.036 401.757 375.957 400.943 370.541C400.269 366.444 397.124 362.796 391.507 359.737Z" fill="#221E1F"/>
<path d="M339.809 365.265C344.414 366.5 350.536 370.878 356.04 371.832C358.483 372.401 361.015 372.478 363.487 372.056C365.96 371.635 368.324 370.725 370.44 369.379C372.556 368.033 374.381 366.278 375.81 364.218C377.238 362.157 378.241 359.833 378.758 357.38C380.64 348.063 372.692 338.634 361.039 336.277C354.13 334.874 350.143 337.035 344.414 337.316C340.932 337.388 337.452 337.116 334.024 336.502L282.634 330.104C282.634 330.104 263.286 342.114 309.228 358.334C309.228 358.334 335.568 364.143 339.809 365.265Z" fill="#FEC057"/>
<path d="M360.308 373.88C358.773 373.89 357.239 373.749 355.731 373.46C352.335 372.604 349.061 371.321 345.987 369.643C343.878 368.528 341.68 367.589 339.416 366.837C335.26 365.742 310.07 360.298 309.818 360.27C289.093 352.918 278.001 345.145 276.653 336.979C276.413 335.28 276.607 333.548 277.215 331.944C277.824 330.34 278.828 328.915 280.135 327.802C280.303 327.667 280.496 327.567 280.704 327.509C280.912 327.451 281.129 327.436 281.343 327.466L334.192 334.902C337.518 335.5 340.895 335.773 344.274 335.716C346.077 335.606 347.87 335.363 349.637 334.986C353.465 334.13 357.423 334.025 361.291 334.678C373.816 337.231 382.325 347.53 380.275 357.689C379.314 362.268 376.804 366.378 373.168 369.327C369.532 372.275 364.991 373.883 360.308 373.88ZM281.68 330.749C280.937 331.51 280.382 332.434 280.06 333.448C279.739 334.461 279.658 335.536 279.826 336.586C280.5 340.43 285.443 348.204 310.716 357.155C311.559 357.324 335.99 362.599 340.258 363.722C342.773 364.476 345.209 365.473 347.531 366.697C350.376 368.233 353.393 369.429 356.517 370.26C357.813 370.515 359.129 370.646 360.449 370.653C364.41 370.727 368.271 369.402 371.353 366.913C374.434 364.424 376.539 360.929 377.298 357.043C379.011 348.625 371.682 340.038 360.842 337.849C357.383 337.257 353.841 337.362 350.424 338.157C348.515 338.55 346.583 338.812 344.639 338.943C341.024 339.028 337.41 338.737 333.855 338.073L281.68 330.749Z" fill="#221E1F"/>
<path d="M282.747 325.529C282.747 325.529 317.231 332.713 326.021 334.706L310.828 357.885C310.828 357.885 275.951 353.928 271.514 338.242C271.711 338.298 269.155 325.109 282.747 325.529Z" fill="#004B86"/>
<path d="M310.267 359.428C308.807 359.428 274.547 357.773 270.138 338.214C269.751 336.479 269.768 334.679 270.187 332.952C270.605 331.225 271.415 329.617 272.553 328.251C273.775 326.626 275.39 325.338 277.247 324.508C279.104 323.679 281.141 323.335 283.168 323.509C283.589 323.509 317.765 331.928 326.442 333.864C326.695 333.924 326.929 334.045 327.125 334.216C327.321 334.387 327.472 334.603 327.565 334.846C327.665 335.093 327.703 335.36 327.673 335.625C327.644 335.89 327.549 336.143 327.397 336.361L311.643 358.811C311.484 359.021 311.274 359.188 311.034 359.295C310.793 359.403 310.53 359.449 310.267 359.428ZM281.708 326.652C280.399 326.764 279.127 327.149 277.976 327.783C276.825 328.416 275.82 329.283 275.024 330.328C274.203 331.324 273.615 332.492 273.304 333.744C272.993 334.997 272.967 336.304 273.227 337.568C276.765 353.171 304.117 355.837 309.48 356.201L323.325 336.558C312.092 333.948 282.747 326.82 282.438 326.736L281.708 326.652Z" fill="#221E1F"/>
<path d="M453.147 162.713C451.903 164.668 450.303 166.372 448.429 167.736C446.302 169.32 444.026 170.692 441.633 171.833C438.957 173.087 436.199 174.156 433.377 175.032C430.569 175.958 427.424 176.716 424.419 177.418C421.414 178.119 418.438 178.652 415.517 179.129C412.597 179.607 409.901 179.971 407.317 180.28C406.447 177.895 405.548 175.285 404.509 172.451C403.47 169.616 402.796 166.838 402.038 163.723C401.28 160.609 400.887 157.718 400.297 154.575C399.782 151.674 399.491 148.738 399.426 145.792C399.37 143.141 399.568 140.491 400.016 137.878C400.398 135.591 401.198 133.394 402.375 131.396C403.352 129.834 404.667 128.511 406.222 127.523C407.756 126.575 409.466 125.945 411.249 125.671C413.113 125.361 415.019 125.409 416.865 125.812C418.857 126.215 420.76 126.976 422.481 128.056C425.27 129.675 427.443 132.172 428.659 135.156C429.75 138.76 429.642 142.62 428.35 146.157C430.961 143.437 434.377 141.627 438.095 140.993C441.302 140.747 444.5 141.566 447.193 143.322C448.928 144.368 450.459 145.718 451.714 147.307C452.948 148.755 453.9 150.421 454.523 152.218C455.061 153.931 455.252 155.734 455.084 157.522C454.904 159.37 454.288 161.149 453.287 162.713" fill="#EE366B"/>
<path d="M332.283 265.561C331.976 265.562 331.676 265.476 331.417 265.312C331.158 265.148 330.952 264.913 330.823 264.635C323.437 249.425 308.104 256.216 307.459 256.413C307.078 256.565 306.652 256.566 306.271 256.415C305.889 256.263 305.581 255.971 305.409 255.599C305.237 255.208 305.227 254.765 305.379 254.366C305.531 253.967 305.834 253.644 306.223 253.466C306.392 253.466 325.038 245.047 333.799 263.204C333.985 263.587 334.013 264.029 333.876 264.433C333.74 264.837 333.45 265.172 333.069 265.364C332.827 265.492 332.557 265.559 332.283 265.561Z" fill="#221E1F"/>
<path d="M373.029 274.513C372.769 274.506 372.513 274.443 372.28 274.326C372.047 274.21 371.843 274.044 371.682 273.839C371.682 273.839 366.683 266.824 359.775 265.785C357.865 265.603 355.938 265.834 354.125 266.464C352.313 267.093 350.657 268.106 349.272 269.433C349.113 269.573 348.927 269.68 348.725 269.747C348.524 269.814 348.311 269.841 348.1 269.825C347.888 269.809 347.682 269.752 347.492 269.656C347.303 269.559 347.135 269.427 346.998 269.265C346.724 268.931 346.592 268.504 346.628 268.074C346.665 267.645 346.868 267.246 347.194 266.964C348.918 265.341 350.972 264.109 353.216 263.354C355.46 262.598 357.841 262.336 360.196 262.586C368.621 263.709 374.237 271.65 374.237 271.987C374.359 272.161 374.445 272.358 374.49 272.566C374.534 272.774 374.537 272.989 374.498 273.198C374.459 273.407 374.378 273.606 374.261 273.784C374.144 273.961 373.993 274.114 373.816 274.232C373.584 274.396 373.312 274.493 373.029 274.513Z" fill="#221E1F"/>
<path d="M303.303 449.901C295.524 449.901 288.166 447.908 285.583 441.089C285.49 440.702 285.543 440.295 285.73 439.943C285.918 439.592 286.228 439.322 286.601 439.184C286.975 439.046 287.386 439.049 287.757 439.193C288.128 439.338 288.434 439.613 288.616 439.967C292.772 450.967 316.529 445.579 325.319 442.773C327.641 442.176 329.819 441.117 331.721 439.658C337.338 431.52 331.047 426.721 330.345 426.216C328.357 424.997 326.097 424.292 323.768 424.165C321.439 424.037 319.116 424.492 317.006 425.487C316.626 425.674 316.186 425.706 315.783 425.575C315.379 425.444 315.042 425.161 314.844 424.785C314.743 424.598 314.682 424.393 314.663 424.181C314.643 423.97 314.667 423.757 314.733 423.555C314.799 423.353 314.905 423.166 315.044 423.006C315.184 422.846 315.355 422.716 315.546 422.624C318.169 421.343 321.078 420.755 323.993 420.917C326.909 421.079 329.734 421.986 332.199 423.55C332.199 423.55 341.915 430.622 334.249 441.707L333.94 442.043C331.642 443.834 329.006 445.142 326.189 445.888C318.784 448.281 311.081 449.632 303.303 449.901Z" fill="#221E1F"/>
<path d="M325.066 444.878C317.737 444.878 338.714 438.844 341.129 437.469C343.477 436.77 345.67 435.627 347.587 434.102C348.413 432.985 349.01 431.715 349.342 430.367C349.675 429.018 349.737 427.617 349.525 426.244C348.983 423.984 347.648 421.992 345.762 420.632C343.667 419.469 341.317 418.843 338.921 418.809C336.525 418.774 334.157 419.333 332.03 420.435C331.845 420.586 331.629 420.694 331.398 420.752C331.166 420.81 330.925 420.816 330.691 420.77C330.457 420.725 330.235 420.628 330.043 420.488C329.85 420.347 329.69 420.166 329.575 419.957C329.46 419.748 329.393 419.517 329.377 419.279C329.362 419.041 329.399 418.802 329.485 418.58C329.572 418.358 329.707 418.158 329.88 417.994C330.053 417.829 330.259 417.705 330.486 417.629C333.1 416.284 336.009 415.608 338.949 415.662C341.89 415.715 344.771 416.498 347.335 417.938C349.951 419.728 351.804 422.43 352.53 425.515C352.847 427.344 352.787 429.219 352.352 431.023C351.917 432.828 351.118 434.525 350.002 436.01C349.926 436.135 349.831 436.249 349.722 436.347C347.439 438.24 344.791 439.644 341.943 440.472C336.583 442.816 330.888 444.303 325.066 444.878Z" fill="#221E1F"/>
</g>
<defs>
<filter id="filter0_d_1_98" x="0" y="0" width="653" height="570.661" filterUnits="userSpaceOnUse" color-interpolation-filters="sRGB">
<feFlood flood-opacity="0" result="BackgroundImageFix"/>
<feColorMatrix in="SourceAlpha" type="matrix" values="0 0 0 0 0 0 0 0 0 0 0 0 0 0 0 0 0 0 127 0" result="hardAlpha"/>
<feOffset dy="10"/>
<feGaussianBlur stdDeviation="15"/>
<feComposite in2="hardAlpha" operator="out"/>
<feColorMatrix type="matrix" values="0 0 0 0 0.625 0 0 0 0 0.753676 0 0 0 0 0.833333 0 0 0 1 0"/>
<feBlend mode="normal" in2="BackgroundImageFix" result="effect1_dropShadow_1_98"/>
<feBlend mode="normal" in="SourceGraphic" in2="effect1_dropShadow_1_98" result="shape"/>
</filter>
</defs>
</svg>
