<svg width="300" height="269" viewBox="0 0 300 269" fill="none" xmlns="http://www.w3.org/2000/svg">
<path d="M279.495 182.791C279.495 190.242 277.29 197.525 273.159 203.72C269.028 209.914 263.156 214.743 256.286 217.594C249.416 220.445 241.857 221.191 234.564 219.738C227.272 218.284 220.573 214.696 215.315 209.428C210.057 204.16 206.476 197.448 205.026 190.14C203.575 182.833 204.32 175.259 207.165 168.375C210.011 161.492 214.829 155.609 221.012 151.47C227.195 147.33 234.463 145.121 241.899 145.121C251.87 145.121 261.433 149.09 268.483 156.154C275.534 163.219 279.495 172.8 279.495 182.791Z" fill="#B91F25"/>
<path d="M241.899 221.14C234.329 221.14 226.929 218.891 220.635 214.677C214.341 210.463 209.436 204.474 206.539 197.467C203.642 190.459 202.884 182.749 204.361 175.31C205.838 167.871 209.483 161.038 214.836 155.674C220.188 150.311 227.008 146.659 234.432 145.179C241.856 143.699 249.552 144.459 256.545 147.361C263.539 150.264 269.516 155.179 273.722 161.486C277.927 167.792 280.172 175.206 280.172 182.791C280.161 192.959 276.125 202.706 268.95 209.896C261.774 217.085 252.046 221.129 241.899 221.14ZM241.899 145.8C234.593 145.797 227.451 147.965 221.375 152.03C215.299 156.096 210.563 161.875 207.766 168.637C204.969 175.4 204.237 182.842 205.661 190.021C207.086 197.201 210.604 203.796 215.77 208.972C220.936 214.148 227.518 217.673 234.683 219.101C241.849 220.528 249.276 219.794 256.025 216.991C262.774 214.189 268.542 209.443 272.599 203.356C276.656 197.268 278.82 190.111 278.817 182.791C278.806 172.984 274.913 163.581 267.992 156.647C261.07 149.712 251.687 145.811 241.899 145.8Z" fill="black"/>
<path d="M234.32 125.268C234.32 125.268 255.405 128.676 259.822 145.729C259.822 145.729 264.803 153.139 262.898 159.573C262.898 159.573 271.027 174.986 259.822 182.197C259.822 182.197 259.384 183.258 261.233 183.286C261.233 183.286 267.16 183.145 268.078 181.108C268.078 181.108 269.743 196.154 252.272 203.903C252.272 203.903 235.337 209.163 214.478 194.655C214.478 194.655 192.308 202.503 176.967 192.944C176.967 192.944 162.149 183.922 172.211 167.788C172.211 167.788 175.034 163.687 178.35 162.584C178.35 162.584 167.639 152.686 174.117 139.493C174.117 139.493 185.943 120.262 199.886 130.712C199.886 130.712 205.898 116.232 227.081 120.347" fill="#0069AA"/>
<path d="M244.227 205.515C237.171 205.515 226.347 203.762 214.309 195.447C211.374 196.437 191.136 202.659 176.544 193.552C172.547 190.947 169.644 186.962 168.387 182.353C167.272 177.644 168.387 172.638 171.562 167.463C173.026 165.391 174.917 163.66 177.108 162.386C174.794 159.785 167.822 150.636 173.369 139.224C173.665 138.758 179.818 128.888 188.667 127.205C190.549 126.867 192.48 126.918 194.341 127.356C196.203 127.794 197.955 128.609 199.491 129.75C201.128 126.767 208.424 116.105 227.095 119.725C227.188 119.735 227.277 119.765 227.358 119.811C227.439 119.858 227.51 119.921 227.565 119.996C227.62 120.072 227.66 120.158 227.68 120.249C227.701 120.34 227.703 120.435 227.685 120.527C227.667 120.619 227.631 120.706 227.578 120.783C227.525 120.86 227.457 120.926 227.378 120.975C227.299 121.025 227.21 121.057 227.118 121.071C227.025 121.084 226.931 121.079 226.841 121.054C206.477 117.109 200.634 130.457 200.394 131.023C200.35 131.115 200.287 131.197 200.209 131.262C200.131 131.328 200.04 131.377 199.942 131.405C199.845 131.431 199.742 131.435 199.642 131.418C199.543 131.401 199.448 131.363 199.364 131.306C197.935 130.109 196.264 129.236 194.466 128.748C192.668 128.26 190.786 128.168 188.949 128.478C180.679 130.061 174.639 139.79 174.582 139.79C168.472 152.375 178.322 161.679 178.746 162.118C178.828 162.202 178.889 162.306 178.924 162.419C178.958 162.532 178.965 162.652 178.943 162.768C178.916 162.88 178.862 162.984 178.786 163.07C178.709 163.156 178.613 163.223 178.506 163.263C175.457 164.281 172.72 168.17 172.691 168.212C169.685 172.992 168.669 177.686 169.699 182.028C170.892 186.279 173.572 189.958 177.25 192.393C192.138 201.683 213.942 194.146 214.182 194.061C214.285 194.028 214.395 194.019 214.502 194.034C214.609 194.048 214.712 194.087 214.803 194.146C235.054 208.286 251.834 203.351 252.003 203.309C265.777 197.186 267.301 186.567 267.386 182.678C265.429 183.543 263.315 183.996 261.177 184.007C260.827 184.045 260.474 183.995 260.149 183.862C259.824 183.728 259.537 183.516 259.314 183.244C259.199 183.057 259.129 182.846 259.109 182.628C259.09 182.409 259.121 182.189 259.201 181.985C259.248 181.856 259.337 181.746 259.455 181.674C270.011 174.844 262.616 160.463 262.277 159.898C262.242 159.817 262.224 159.731 262.224 159.643C262.224 159.556 262.242 159.469 262.277 159.389C264.041 153.322 259.314 146.125 259.271 146.125C259.23 146.063 259.197 145.997 259.173 145.927C254.939 129.482 234.419 125.989 234.222 125.961C234.134 125.947 234.049 125.916 233.973 125.869C233.897 125.823 233.831 125.761 233.778 125.689C233.726 125.617 233.688 125.535 233.667 125.448C233.647 125.361 233.643 125.271 233.657 125.183C233.671 125.095 233.702 125.011 233.749 124.935C233.795 124.86 233.857 124.794 233.929 124.743C234.001 124.691 234.083 124.655 234.17 124.636C234.257 124.617 234.346 124.615 234.433 124.631C234.645 124.631 255.913 128.294 260.457 145.474C261.064 146.408 265.311 153.28 263.618 159.615C264.606 161.637 270.829 175.594 260.556 182.664C260.757 182.723 260.966 182.752 261.177 182.749C263.435 182.749 266.822 182.098 267.386 180.967C267.448 180.834 267.552 180.725 267.682 180.656C267.812 180.587 267.961 180.562 268.106 180.585C268.251 180.608 268.386 180.676 268.49 180.78C268.594 180.884 268.662 181.019 268.684 181.165C268.684 181.335 270.194 196.72 252.469 204.667C249.773 205.325 247 205.611 244.227 205.515Z" fill="black"/>
<path d="M200.944 208.654C200.944 208.654 190.247 231.519 179.776 212.896C179.776 212.896 189.048 206.307 188.243 201.428C188.243 201.428 195.737 197.427 201.819 200.481C201.687 203.205 201.405 205.919 200.973 208.612" fill="#E1212A"/>
<path d="M188.653 220.9C185.237 220.9 182.062 218.326 179.225 213.264L178.929 212.741L179.423 212.387C181.935 210.62 188.201 205.232 187.58 201.584L187.495 201.103L187.933 200.863C190.643 199.513 193.615 198.775 196.64 198.699C198.546 198.669 200.432 199.091 202.144 199.929L202.539 200.127V200.566C202.441 203.384 202.135 206.192 201.622 208.965C201.326 209.432 195.878 220.9 188.653 220.9ZM180.693 213.123C183.191 217.365 185.872 219.542 188.653 219.542C195.031 219.542 200.281 208.484 200.281 208.343C200.677 205.881 200.926 203.397 201.029 200.905C199.611 200.301 198.083 199.998 196.542 200.014C193.925 200.111 191.356 200.742 188.991 201.867C189.175 206.378 182.598 211.68 180.693 213.123Z" fill="black"/>
<path d="M248.264 246.706C248.264 246.706 244.919 240.781 249.026 237.501C249.026 237.501 253.542 233.81 253.612 232.622C253.612 232.622 254.868 231.859 256.435 234.856C256.435 234.856 261.797 244.755 253.725 247.47C253.725 247.47 247.812 248.445 248.306 246.706" fill="#0069AA"/>
<path d="M250.592 248.417C249.181 248.417 248.25 248.163 247.84 247.625C247.671 247.398 247.586 247.117 247.6 246.833C246.387 244.514 245.159 239.763 248.645 236.935C250.649 235.295 252.879 233.131 252.991 232.523C252.998 232.418 253.029 232.315 253.083 232.224C253.137 232.133 253.212 232.056 253.302 232C253.514 231.887 255.278 231.053 257.042 234.503C257.155 234.715 259.977 240.018 258.354 244.161C257.966 245.117 257.363 245.971 256.592 246.655C255.821 247.339 254.903 247.836 253.909 248.106C252.814 248.3 251.704 248.404 250.592 248.417ZM248.955 246.876C249.487 247.027 250.04 247.089 250.592 247.06C251.608 247.04 252.622 246.955 253.627 246.805C254.401 246.581 255.115 246.184 255.716 245.646C256.317 245.107 256.789 244.44 257.098 243.694C258.509 240.145 255.87 235.21 255.856 235.21C255.052 233.655 254.445 233.329 254.163 233.273C252.863 235.096 251.287 236.703 249.492 238.038C245.893 240.866 248.772 246.169 248.885 246.381C248.928 246.455 248.957 246.536 248.969 246.621C248.981 246.706 248.977 246.793 248.955 246.876Z" fill="black"/>
<path d="M212.686 236.949C212.686 236.949 229.621 245.943 237.665 246.989C237.665 246.989 247.121 248.163 249.209 243.991C249.209 243.991 250.395 243.072 251.086 244.26C251.086 244.26 252.131 245.476 249.35 247.088C249.35 247.088 236.268 255.855 212.333 238.929C212.333 238.929 210.315 237.515 211.43 236.907C211.43 236.907 211.783 236.002 212.686 236.907" fill="#FEC057"/>
<path d="M239.486 250.086C231.117 250.086 221.845 246.522 211.952 239.523C211.585 239.268 210.386 238.349 210.428 237.388C210.435 237.209 210.483 237.034 210.569 236.877C210.655 236.72 210.776 236.585 210.922 236.483C211.028 236.299 211.18 236.146 211.363 236.039C211.547 235.933 211.754 235.876 211.966 235.875C212.392 235.895 212.793 236.083 213.081 236.398C214.38 237.077 230.171 245.335 237.75 246.296C238.687 246.402 239.629 246.454 240.572 246.452C243.056 246.452 247.403 246.084 248.602 243.624V243.482L248.729 243.397C249.114 243.099 249.584 242.931 250.07 242.917C250.377 242.921 250.677 243.008 250.94 243.167C251.203 243.326 251.419 243.552 251.566 243.822C251.697 244.008 251.79 244.22 251.839 244.443C251.887 244.667 251.89 244.898 251.848 245.122C251.694 245.687 251.42 246.212 251.045 246.661C250.67 247.11 250.203 247.473 249.675 247.724C246.557 249.429 243.034 250.246 239.486 250.086ZM211.797 237.515C212.049 237.863 212.359 238.165 212.714 238.406C224.766 246.89 233.883 248.728 239.528 248.728C242.814 248.843 246.072 248.082 248.969 246.522C250.296 245.73 250.536 245.108 250.592 244.939C250.614 244.887 250.626 244.832 250.626 244.776C250.626 244.72 250.614 244.665 250.592 244.613C250.381 244.274 250.239 244.274 250.183 244.274C250.034 244.284 249.889 244.327 249.76 244.401C248.221 247.229 243.959 247.753 240.615 247.753C239.615 247.752 238.617 247.7 237.623 247.597C229.522 246.551 213.109 237.854 212.418 237.487L212.249 237.373L212.079 237.218V237.345L211.797 237.515Z" fill="black"/>
<path d="M204.007 199.505C204.007 199.505 186.536 209.135 190.925 234.998C191.351 236.745 191.883 238.464 192.519 240.145C192.519 240.145 196.287 250.043 195.723 252.772L199.195 261.893H206.519C206.519 261.893 209.666 260.479 209.864 257.778L209.13 246.975H211.571L214.676 257.905C214.888 260.62 218.613 261.893 218.613 261.893H225.359L228.831 254.526C228.28 251.698 232.034 240.145 232.034 240.145C232.67 238.464 233.203 236.745 233.629 234.998C238.018 209.135 219.714 199.449 219.714 199.449C219.714 199.449 204.515 199.293 203.993 199.449" fill="#E1212A"/>
<path d="M225.797 262.572H218.416C218.246 262.572 214.323 261.158 214.027 258.047L211.077 247.654H209.849L210.541 257.736C210.301 260.917 206.942 262.444 206.801 262.515H198.743L195.031 252.772V252.574C195.455 250.453 192.886 243.016 191.87 240.329C191.24 238.654 190.703 236.945 190.261 235.21C185.844 209.135 203.499 199.081 203.682 198.982C203.866 198.883 204.148 198.77 210.188 198.77C214.591 198.77 219.742 198.77 219.742 198.77H219.898L220.053 198.841C220.236 198.94 238.724 209.064 234.306 235.111C233.898 236.906 233.375 238.672 232.74 240.4C231.724 243.539 229.141 252.249 229.579 254.384V254.611L225.797 262.572ZM218.74 261.158H224.922L228.139 254.356C227.758 251.189 230.962 241.05 231.385 239.876C232.011 238.21 232.543 236.511 232.98 234.786C236.974 211.001 221.196 201.075 219.559 200.113C218.613 200.113 214.111 200.113 210.188 200.113C205.7 200.113 204.543 200.113 204.247 200.198C202.948 200.976 187.495 210.803 191.546 234.927C192.005 236.619 192.566 238.281 193.225 239.905C193.606 240.909 196.88 249.605 196.485 252.702L199.731 261.186H206.434C206.971 260.917 209.116 259.772 209.257 257.707L208.466 246.268H212.15L215.367 257.835C215.509 259.843 218.204 261.002 218.754 261.214L218.74 261.158Z" fill="black"/>
<path d="M198.785 201.273C198.785 201.273 185.491 218.241 188.413 235.394C188.413 235.394 212.15 244.076 235.111 236.511C235.111 236.511 239.133 215.442 229.141 202.998C229.141 202.998 206.42 209.46 198.785 201.273Z" fill="#E1212A"/>
<path d="M214.69 240.301C205.689 240.277 196.747 238.846 188.187 236.058L187.82 235.917L187.749 235.535C184.757 218.241 197.699 201.584 198.249 200.877L198.729 200.269L199.265 200.849C201.706 203.45 206.081 204.766 212.263 204.766C217.902 204.629 223.506 203.827 228.958 202.376L229.395 202.248L229.663 202.602C239.796 215.145 235.943 235.79 235.774 236.624V237.02L235.393 237.147C228.702 239.29 221.714 240.354 214.69 240.301ZM188.991 234.913C197.293 237.561 205.949 238.925 214.662 238.957C221.359 239.004 228.023 238.017 234.419 236.03C234.885 233.202 237.397 214.961 228.774 203.79C223.343 205.217 217.763 206 212.15 206.123C206.025 206.123 201.523 204.85 198.743 202.333C196.598 205.515 186.733 220.179 188.991 234.913Z" fill="black"/>
<path d="M210.499 252.292C210.499 252.292 212.122 261.893 207.21 263.689C207.21 263.689 191.786 268.299 187.312 261.893C187.312 261.893 184.772 256.944 194.89 256.421L194.1 252.292H210.499Z" fill="black"/>
<path d="M196.457 265.966C191.687 265.966 188.413 264.735 186.691 262.289C186.422 261.751 186.288 261.156 186.301 260.555C186.313 259.954 186.471 259.365 186.761 258.839C187.749 257.114 190.191 256.095 194.029 255.798L193.38 252.419C193.359 252.321 193.36 252.219 193.384 252.121C193.407 252.023 193.453 251.932 193.516 251.855C193.58 251.777 193.661 251.715 193.752 251.673C193.844 251.631 193.943 251.611 194.043 251.613H210.442C210.601 251.614 210.755 251.671 210.877 251.775C210.998 251.878 211.079 252.021 211.105 252.179C211.105 252.589 212.757 262.36 207.394 264.325C203.833 265.339 200.158 265.891 196.457 265.966ZM194.862 252.956L195.497 256.293C195.515 256.387 195.512 256.483 195.491 256.576C195.469 256.668 195.428 256.755 195.37 256.831C195.311 256.908 195.237 256.971 195.152 257.018C195.066 257.064 194.973 257.092 194.876 257.099C190.163 257.34 188.497 258.513 187.933 259.503C187.76 259.822 187.662 260.177 187.648 260.54C187.633 260.903 187.702 261.264 187.848 261.596C189.259 263.576 192.082 264.622 196.457 264.622C200.013 264.535 203.545 264.003 206.97 263.038C210.612 261.709 210.089 254.964 209.864 252.956H194.862Z" fill="black"/>
<path d="M212.7 252.292C212.7 252.292 211.656 261.158 215.974 263.689C215.974 263.689 231.413 268.299 235.887 261.893C235.887 261.893 239.697 256.52 230.637 256.421L229.099 252.292H212.7Z" fill="black"/>
<path d="M226.742 265.966C223.042 265.894 219.366 265.348 215.805 264.339C215.758 264.347 215.711 264.347 215.664 264.339C211.007 261.624 211.995 252.659 212.037 252.278C212.058 252.113 212.138 251.961 212.263 251.852C212.388 251.742 212.548 251.682 212.714 251.684H229.155C229.293 251.683 229.428 251.725 229.541 251.803C229.655 251.882 229.742 251.993 229.79 252.122L231.202 255.827C234.377 255.926 236.367 256.732 237.115 258.216C237.366 258.902 237.443 259.64 237.34 260.363C237.237 261.086 236.956 261.772 236.522 262.36C234.786 264.735 231.512 265.966 226.742 265.966ZM216.313 263.137C219.711 264.089 223.215 264.612 226.742 264.693C230.976 264.693 233.954 263.646 235.393 261.582C235.393 261.582 236.494 259.998 235.887 258.825C235.28 257.651 233.544 257.198 230.694 257.17C230.557 257.165 230.425 257.121 230.313 257.043C230.2 256.966 230.112 256.858 230.059 256.732L228.647 253.027H213.364C213.237 254.922 213.095 261.101 216.313 263.067V263.137Z" fill="black"/>
<path d="M188.003 228.691C188.003 228.691 207.987 235.62 236.536 230.544C236.536 230.544 240.304 234.786 235.915 237.175C235.915 237.175 215.48 248.771 186.973 235.323C186.973 235.323 184.687 233.725 186.465 229.964C186.587 229.635 186.794 229.344 187.064 229.12C187.334 228.897 187.658 228.749 188.003 228.691Z" fill="white"/>
<path d="M214.492 242.506C204.849 242.406 195.348 240.16 186.677 235.931H186.578C185.632 235.267 184.249 233.103 185.858 229.723C186.024 229.295 186.298 228.919 186.655 228.631C187.012 228.343 187.438 228.154 187.89 228.083C187.998 228.061 188.108 228.061 188.215 228.083C197.123 230.66 206.365 231.895 215.636 231.746C222.605 231.744 229.561 231.129 236.423 229.907C236.534 229.89 236.647 229.9 236.753 229.937C236.859 229.974 236.954 230.036 237.03 230.119C237.595 230.74 238.031 231.468 238.312 232.259C238.593 233.051 238.714 233.89 238.667 234.729C238.529 235.395 238.237 236.018 237.816 236.551C237.394 237.084 236.855 237.511 236.24 237.798C235.901 237.953 227.744 242.506 214.492 242.506ZM187.312 234.743C195.788 238.865 205.071 241.053 214.492 241.149C227.391 241.149 235.562 236.624 235.562 236.624C235.997 236.437 236.382 236.15 236.686 235.787C236.99 235.423 237.205 234.993 237.312 234.531C237.366 233.365 236.983 232.22 236.24 231.321C229.431 232.508 222.533 233.109 215.621 233.117C206.267 233.25 196.944 232.011 187.947 229.441C187.755 229.49 187.577 229.585 187.43 229.718C187.282 229.851 187.169 230.018 187.1 230.204C185.689 233.174 187.058 234.517 187.312 234.743Z" fill="black"/>
<path d="M230.313 202.842C230.313 202.842 255.715 202.758 245.286 223.516C245.286 223.516 238.907 220.688 233.558 222.498C233.558 222.498 236.381 214.353 229.226 210.606" fill="#E1212A"/>
<path d="M245.596 224.392L245.018 224.138C244.947 224.138 238.808 221.48 233.728 223.134L232.444 223.558L232.881 222.271C232.98 221.96 235.407 214.621 228.873 211.199L229.494 209.997C235.393 213.094 234.956 219.033 234.448 221.55C237.969 220.978 241.579 221.359 244.905 222.653C247.445 217.336 247.727 213.024 245.766 209.842C241.885 203.578 230.468 203.521 230.242 203.521V202.107C230.75 202.107 242.59 202.107 246.881 209.05C249.181 212.769 248.828 217.718 245.808 223.756L245.596 224.392Z" fill="black"/>
<path d="M232.147 218.114C232.147 218.114 240.022 211.539 248.49 218.114C248.49 218.114 250.098 223.53 246.302 224.548C246.302 224.548 235.21 221.027 232.19 223.516C232.19 223.516 229.367 219.797 232.19 218.114" fill="white"/>
<path d="M232.98 225.227H232.909C232.818 225.221 232.728 225.196 232.648 225.152C232.567 225.108 232.498 225.047 232.443 224.972C232.204 224.647 230.016 221.748 230.454 219.443C230.53 219.05 230.69 218.678 230.921 218.352C231.152 218.025 231.45 217.751 231.794 217.548C234.297 215.641 237.343 214.585 240.488 214.537C243.576 214.552 246.565 215.631 248.955 217.591C249.067 217.678 249.15 217.796 249.195 217.93C249.736 219.726 249.641 221.654 248.927 223.389C248.676 223.843 248.333 224.24 247.919 224.554C247.506 224.868 247.032 225.093 246.528 225.213C246.421 225.241 246.31 225.241 246.203 225.213C243.46 224.578 240.662 224.213 237.849 224.124C236.322 223.984 234.789 224.32 233.46 225.085C233.393 225.14 233.316 225.18 233.234 225.204C233.151 225.229 233.065 225.236 232.98 225.227ZM237.792 222.766C240.644 222.84 243.481 223.205 246.26 223.855C246.856 223.672 247.361 223.267 247.671 222.724C248.204 221.371 248.274 219.879 247.868 218.482C245.76 216.802 243.153 215.872 240.459 215.837C237.594 215.925 234.829 216.915 232.556 218.666C232.347 218.761 232.165 218.907 232.025 219.089C231.885 219.271 231.791 219.485 231.752 219.712C231.785 221.145 232.28 222.529 233.163 223.657C234.612 222.99 236.2 222.685 237.792 222.766Z" fill="black"/>
<path d="M185.04 198.162C185.04 198.162 194.707 196.847 189.88 209.474C189.88 209.474 186.705 216.361 180.693 215.13C180.693 215.13 167.512 203.281 185.04 198.162Z" fill="white"/>
<path d="M182.598 216.078C182.124 216.071 181.651 216.019 181.187 215.922C181.069 215.905 180.96 215.851 180.876 215.767C180.608 215.541 174.484 210.111 175.669 204.737C176.375 201.527 179.479 199.081 184.899 197.511C185.213 197.489 185.529 197.489 185.844 197.511C186.814 197.468 187.781 197.658 188.663 198.067C189.544 198.475 190.315 199.09 190.91 199.859C192.322 201.966 192.209 205.289 190.501 209.757C190.402 209.927 188.06 216.078 182.598 216.078ZM181.568 214.664C181.909 214.72 182.253 214.748 182.598 214.749C187.142 214.749 189.217 209.276 189.245 209.22C190.769 205.246 190.953 202.263 189.796 200.58C189.315 199.989 188.701 199.521 188.004 199.216C187.307 198.911 186.547 198.777 185.788 198.827C185.567 198.812 185.345 198.812 185.124 198.827C180.312 200.241 177.518 202.333 176.925 205.006C176.008 209.248 180.707 213.83 181.568 214.636V214.664Z" fill="black"/>
<path d="M188.526 194.075L186.507 195.39C186.507 195.39 191.814 199.788 189.626 205.289L198.334 203.733C198.334 203.733 198.051 199.802 198.842 199.237C195.247 197.849 191.792 196.121 188.526 194.075Z" fill="#B91F25"/>
<path d="M188.554 206.165L188.991 205.034C190.981 200.057 186.169 195.942 186.084 195.899L185.378 195.32L188.525 193.269L188.907 193.51C192.134 195.518 195.54 197.222 199.082 198.6L200.267 199.053L199.237 199.788C198.91 201.062 198.829 202.386 198.997 203.691V204.299L188.554 206.165ZM187.58 195.489C188.878 196.903 191.602 200.269 190.6 204.426L197.656 203.168C197.56 201.968 197.655 200.76 197.939 199.59C194.684 198.297 191.548 196.722 188.568 194.881L187.58 195.489Z" fill="black"/>
<path d="M233.558 199.929C233.558 199.929 225.091 212.91 209.327 212.656C209.327 212.656 199.449 206.123 207.747 202.616C207.747 202.616 231.512 202.022 233.558 199.873" fill="white"/>
<path d="M209.708 213.377H209.327C209.197 213.374 209.07 213.335 208.96 213.264C208.735 213.123 203.428 209.573 203.767 205.996C203.908 204.355 205.178 203.026 207.479 202.051C207.557 202.03 207.64 202.03 207.718 202.051C219.277 201.754 231.907 200.735 233.121 199.519C233.249 199.41 233.411 199.35 233.58 199.35C233.748 199.35 233.91 199.41 234.038 199.519C234.168 199.627 234.253 199.779 234.279 199.945C234.305 200.112 234.27 200.282 234.179 200.424C234.038 200.439 225.331 213.377 209.708 213.377ZM209.539 211.963H209.708C220.998 211.963 228.563 204.808 231.54 201.344C225.585 202.758 211.444 203.182 207.888 203.267C206.138 204.03 205.206 204.963 205.065 206.095C204.896 208.343 208.099 211.03 209.539 212.034V211.963Z" fill="black"/>
<path d="M200.549 196.14C200.549 196.14 187.933 205.515 208.015 215.145C208.015 215.145 216.115 219.528 217.682 210.167C217.682 210.167 214.563 195.447 200.549 196.14Z" fill="white"/>
<path d="M212.051 216.827C210.534 216.786 209.045 216.409 207.69 215.724C200.352 212.189 196.4 208.23 196.005 203.974C195.525 199.067 199.957 195.716 200.154 195.574C200.258 195.491 200.388 195.446 200.521 195.447C214.916 194.726 218.303 209.87 218.331 210.026C218.353 210.104 218.353 210.187 218.331 210.266C217.442 215.71 214.394 216.827 212.051 216.827ZM200.761 196.79C200.027 197.384 196.951 200.184 197.303 203.861C197.656 207.537 201.354 211.199 208.269 214.522C209.432 215.108 210.708 215.436 212.009 215.484C214.662 215.484 216.327 213.688 216.948 210.167C216.652 208.725 213.321 196.338 200.803 196.804L200.761 196.79Z" fill="black"/>
<path d="M203.428 145.786C203.428 145.786 186.776 153.266 183.671 175.099C183.671 175.099 181.004 193.368 197.219 199.675C197.219 199.675 238.611 215.809 246.203 185.874C247.707 179.975 247.647 173.784 246.028 167.916C244.409 162.048 241.288 156.705 236.974 152.417C236.974 152.417 222.17 138.701 203.442 145.786" fill="#FEC057"/>
<path d="M220.166 204.695C212.261 204.493 204.441 203.013 197.007 200.311C180.524 193.877 183.008 175.184 183.022 175C186.169 153.068 202.991 145.248 203.104 145.178C206.707 143.791 210.534 143.081 214.394 143.085C222.859 143.28 230.996 146.402 237.425 151.923C252.497 166.897 246.937 185.874 246.852 186.072C243.79 198.247 234.546 204.695 220.166 204.695ZM214.394 144.428C210.732 144.439 207.103 145.114 203.682 146.422C203.555 146.422 187.368 154.015 184.376 175.184C184.264 175.919 181.935 193.015 197.459 199.053C204.737 201.678 212.39 203.11 220.123 203.295C234.024 203.295 242.562 197.37 245.526 185.662C245.526 185.45 250.945 167.279 236.437 152.856C236.409 152.828 227.18 144.428 214.394 144.428Z" fill="black"/>
<path d="M205.079 173.869C205.004 174.332 204.794 174.762 204.475 175.105C204.156 175.449 203.743 175.69 203.287 175.798C202.831 175.907 202.354 175.877 201.915 175.714C201.476 175.551 201.095 175.261 200.82 174.882C200.545 174.502 200.389 174.049 200.37 173.58C200.352 173.112 200.472 172.648 200.717 172.248C200.961 171.847 201.318 171.529 201.743 171.331C202.167 171.134 202.641 171.067 203.104 171.139C203.411 171.189 203.706 171.299 203.97 171.464C204.235 171.628 204.464 171.843 204.645 172.097C204.826 172.351 204.955 172.638 205.025 172.942C205.095 173.246 205.104 173.561 205.051 173.869" fill="black"/>
<path d="M218.543 176.103C218.466 176.567 218.255 176.997 217.934 177.341C217.613 177.684 217.198 177.924 216.741 178.03C216.284 178.137 215.806 178.105 215.367 177.939C214.928 177.773 214.548 177.481 214.275 177.098C214.002 176.716 213.848 176.261 213.834 175.791C213.819 175.321 213.944 174.857 214.192 174.459C214.441 174.06 214.802 173.744 215.229 173.551C215.657 173.358 216.132 173.296 216.595 173.374C217.214 173.478 217.767 173.823 218.132 174.335C218.497 174.846 218.645 175.482 218.543 176.103Z" fill="black"/>
<path d="M241.899 149.391C245.437 153.529 248.65 157.935 251.51 162.57C251.51 162.57 255.743 160.039 255.588 155.769C255.588 155.769 254.064 148.288 247.191 147.44C246.219 147.34 245.237 147.464 244.32 147.802C243.403 148.141 242.575 148.684 241.899 149.391Z" fill="#FEC057"/>
<path d="M251.509 163.249H251.34C251.253 163.227 251.171 163.187 251.101 163.131C251.03 163.074 250.972 163.004 250.931 162.924C248.075 158.34 244.886 153.973 241.391 149.858C241.268 149.734 241.2 149.566 241.2 149.391C241.2 149.217 241.268 149.049 241.391 148.925C242.139 148.136 243.061 147.534 244.083 147.166C245.104 146.798 246.198 146.674 247.276 146.804C254.501 147.695 256.167 155.585 256.181 155.67C256.189 155.707 256.189 155.746 256.181 155.783C256.308 160.393 251.947 163.065 251.792 163.178C251.703 163.221 251.607 163.245 251.509 163.249ZM242.858 149.476C246.095 153.299 249.061 157.344 251.735 161.58C252.66 160.927 253.427 160.072 253.976 159.081C254.526 158.089 254.846 156.986 254.911 155.854C254.755 155.147 253.189 148.854 247.106 148.105C246.342 148.023 245.569 148.103 244.837 148.34C244.106 148.576 243.432 148.963 242.858 149.476Z" fill="black"/>
<path d="M201.918 141.006C196.986 143.308 192.24 145.988 187.721 149.024C187.721 149.024 184.899 144.98 186.818 141.147C186.818 141.147 191.277 134.954 197.896 137.033C198.824 137.346 199.668 137.866 200.364 138.555C201.061 139.243 201.593 140.081 201.918 141.006Z" fill="#FEC057"/>
<path d="M187.721 149.688H187.58C187.492 149.673 187.408 149.64 187.332 149.592C187.257 149.543 187.193 149.48 187.143 149.406C187.016 149.222 184.165 144.994 186.183 140.851L186.253 140.752C186.395 140.554 189.782 135.93 195.173 135.93C196.159 135.936 197.138 136.088 198.08 136.382C199.097 136.722 200.023 137.29 200.788 138.042C201.554 138.794 202.138 139.711 202.497 140.723C202.57 140.885 202.576 141.068 202.516 141.235C202.455 141.401 202.332 141.537 202.172 141.614C197.271 143.895 192.553 146.552 188.06 149.561C187.959 149.631 187.843 149.675 187.721 149.688ZM187.397 141.501C186.985 142.559 186.82 143.698 186.912 144.829C187.005 145.961 187.354 147.057 187.933 148.034C192.111 145.278 196.478 142.821 201.001 140.681C200.7 139.976 200.256 139.342 199.697 138.819C199.138 138.296 198.477 137.894 197.755 137.641C196.928 137.379 196.068 137.241 195.201 137.231C190.755 137.273 187.735 141.048 187.397 141.501Z" fill="black"/>
<path d="M197.699 143.41C197.548 143.407 197.404 143.352 197.289 143.254C196.285 142.52 195.138 142.004 193.923 141.741C192.707 141.478 191.45 141.473 190.233 141.727C190.144 141.764 190.047 141.782 189.95 141.779C189.854 141.776 189.759 141.752 189.672 141.708C189.585 141.665 189.509 141.604 189.448 141.529C189.386 141.453 189.342 141.366 189.318 141.272C189.293 141.178 189.289 141.08 189.306 140.984C189.322 140.889 189.359 140.798 189.414 140.717C189.469 140.637 189.54 140.57 189.623 140.52C189.706 140.469 189.798 140.438 189.894 140.426C191.307 140.11 192.772 140.104 194.188 140.409C195.603 140.714 196.936 141.323 198.094 142.194C198.234 142.308 198.325 142.472 198.346 142.652C198.367 142.831 198.317 143.012 198.207 143.155C198.144 143.23 198.066 143.291 197.979 143.335C197.891 143.379 197.796 143.404 197.699 143.41Z" fill="black"/>
<path d="M252.3 153.506C252.165 153.502 252.034 153.463 251.919 153.393C250.851 152.766 249.661 152.374 248.43 152.242C247.199 152.11 245.954 152.243 244.778 152.63C244.615 152.67 244.443 152.648 244.295 152.568C244.147 152.488 244.034 152.356 243.978 152.198C243.921 152.039 243.926 151.866 243.99 151.71C244.055 151.555 244.174 151.429 244.326 151.357C245.699 150.893 247.156 150.734 248.596 150.89C250.036 151.046 251.425 151.514 252.667 152.262C252.816 152.36 252.92 152.513 252.957 152.688C252.994 152.863 252.961 153.045 252.864 153.195C252.802 153.288 252.718 153.365 252.62 153.419C252.521 153.473 252.412 153.503 252.3 153.506Z" fill="black"/>
<path d="M204.854 137.768C204.854 137.768 199.547 156.617 222.268 161.807C222.268 161.807 225.303 152.29 230.962 152.021C230.962 152.021 241.165 151.47 241.546 144.739C241.546 144.739 241.998 141.642 240.022 140.723" fill="#0069AA"/>
<path d="M222.269 162.514H222.127C214.535 160.774 209.186 157.338 206.223 152.333C203.719 147.868 202.997 142.617 204.205 137.641C204.226 137.555 204.264 137.474 204.317 137.404C204.37 137.334 204.437 137.275 204.514 137.231C204.59 137.188 204.675 137.16 204.763 137.15C204.85 137.14 204.939 137.148 205.023 137.174C205.195 137.224 205.342 137.338 205.431 137.494C205.521 137.65 205.546 137.834 205.503 138.008C204.41 142.623 205.063 147.48 207.338 151.64C210.033 156.193 214.888 159.346 221.789 161.043C222.579 158.88 225.613 151.626 230.877 151.371C230.962 151.371 240.474 150.777 240.826 144.725C240.826 144.64 241.165 142.067 239.683 141.36C239.603 141.323 239.531 141.271 239.471 141.206C239.411 141.141 239.365 141.065 239.335 140.982C239.304 140.899 239.291 140.811 239.295 140.723C239.299 140.635 239.321 140.548 239.359 140.469C239.438 140.308 239.576 140.184 239.745 140.124C239.913 140.063 240.099 140.07 240.262 140.144C242.647 141.261 242.181 144.711 242.153 144.866C241.744 152.064 231.385 152.7 230.948 152.729C225.811 152.969 222.889 161.962 222.861 162.047C222.821 162.176 222.743 162.29 222.637 162.373C222.532 162.456 222.403 162.505 222.269 162.514Z" fill="black"/>
<path d="M209.214 185.322C209.085 186.386 208.641 187.388 207.939 188.197C207.237 189.006 206.31 189.586 205.276 189.863C204.243 190.14 203.15 190.101 202.139 189.751C201.128 189.401 200.244 188.755 199.602 187.898C198.96 187.041 198.588 186.01 198.535 184.94C198.482 183.869 198.749 182.807 199.303 181.89C199.857 180.973 200.673 180.243 201.644 179.793C202.616 179.344 203.699 179.197 204.755 179.369C205.438 179.466 206.095 179.697 206.689 180.049C207.283 180.401 207.802 180.867 208.216 181.42C208.63 181.972 208.932 182.602 209.103 183.271C209.274 183.941 209.312 184.638 209.214 185.322Z" fill="white"/>
<path d="M218.5 187.132C218.383 188.277 217.925 189.36 217.185 190.241C216.446 191.121 215.459 191.759 214.354 192.071C213.248 192.383 212.074 192.355 210.985 191.99C209.896 191.625 208.941 190.941 208.244 190.026C207.548 189.111 207.142 188.007 207.08 186.858C207.017 185.708 207.301 184.567 207.894 183.581C208.486 182.596 209.361 181.811 210.405 181.33C211.448 180.849 212.612 180.693 213.744 180.882C215.199 181.086 216.515 181.857 217.405 183.027C218.296 184.198 218.689 185.673 218.5 187.132Z" fill="white"/>
<path d="M227.095 122.086C229.254 121.45 253.387 106.885 270.844 123.5C274.739 127.191 279.156 137.16 276.644 150.763C276.644 150.763 269.785 144.442 264.366 148.656L263.787 152.304C262.376 150.862 236.72 120.912 227.095 122.086Z" fill="#E1212A"/>
<path d="M264.168 153.761L263.251 152.757L262.729 152.177C245.752 132.918 232.74 122.086 227.194 122.807L226.926 121.492C227.109 121.492 227.673 121.181 228.337 120.884C231.935 119.258 241.49 115.016 251.538 115.016C255.231 114.887 258.91 115.541 262.334 116.935C265.758 118.329 268.85 120.431 271.408 123.104C274.626 126.498 280.017 136.679 277.392 150.961L277.166 152.163L276.263 151.329C276.263 151.329 272.537 147.949 268.642 147.949C267.354 147.943 266.098 148.349 265.057 149.109L264.168 153.761ZM229.762 121.733C238.653 124.165 254.205 140.469 263.35 150.834L263.787 148.345L263.985 148.189C265.301 147.155 266.927 146.597 268.6 146.606C271.379 146.79 274.035 147.827 276.206 149.575C278.097 137.372 273.821 127.657 270.392 124.037C267.955 121.518 265.018 119.539 261.77 118.229C258.523 116.919 255.037 116.306 251.538 116.43C242.506 116.43 233.812 119.951 229.762 121.733Z" fill="black"/>
<path d="M223.397 120.262C223.397 120.262 231.484 117.561 235.972 118.961C236.451 119.258 265.198 134.106 268.106 153.888C268.106 153.888 265.834 163.885 263.082 158.823C250.38 135.435 229.395 120.276 223.397 120.262Z" fill="white"/>
<path d="M264.253 161.679C263.053 161.679 262.461 160.265 262.277 159.813C252.921 137.231 227.095 120.389 221.238 120.361C221.062 120.378 220.887 120.324 220.751 120.211C220.614 120.099 220.528 119.936 220.511 119.76C220.495 119.584 220.548 119.408 220.661 119.271C220.773 119.135 220.935 119.049 221.111 119.032C224.644 118.32 228.233 117.922 231.837 117.844C233.298 117.807 234.756 117.978 236.169 118.353H236.423C241.334 120.997 266.059 135.152 268.769 153.704C268.79 153.793 268.79 153.885 268.769 153.973C268.134 156.363 266.44 161.679 264.253 161.679ZM224.498 119.809C233.855 123.387 255.023 138.772 263.519 159.318C263.872 160.166 264.168 160.364 264.253 160.364C264.973 160.364 266.469 157.268 267.414 153.846C264.592 136.014 240.6 122.213 235.774 119.626C234.511 119.304 233.21 119.161 231.907 119.201C229.426 119.228 226.95 119.431 224.498 119.809Z" fill="black"/>
<path d="M282.839 154.397C282.739 155.357 282.357 156.265 281.741 157.008C281.126 157.75 280.304 158.292 279.381 158.567C278.458 158.841 277.474 158.835 276.554 158.549C275.634 158.263 274.82 157.71 274.213 156.96C273.607 156.21 273.237 155.297 273.148 154.336C273.06 153.375 273.258 152.41 273.718 151.562C274.178 150.714 274.878 150.021 275.73 149.572C276.583 149.123 277.549 148.937 278.507 149.038C279.79 149.173 280.968 149.814 281.78 150.819C282.592 151.824 282.973 153.111 282.839 154.397Z" fill="white"/>
<path d="M277.999 159.445H277.42C276.519 159.344 275.656 159.022 274.907 158.508C274.159 157.995 273.548 157.305 273.127 156.5C272.706 155.695 272.489 154.798 272.495 153.889C272.5 152.98 272.728 152.087 273.159 151.286C273.589 150.486 274.209 149.804 274.963 149.3C275.718 148.795 276.585 148.484 277.487 148.394C278.39 148.303 279.301 148.435 280.14 148.779C280.98 149.123 281.723 149.669 282.303 150.367C282.775 150.932 283.128 151.586 283.341 152.291C283.555 152.995 283.624 153.736 283.545 154.468C283.408 155.841 282.762 157.114 281.736 158.035C280.71 158.956 279.376 159.459 277.999 159.445ZM277.999 149.688C277.214 149.704 276.448 149.938 275.788 150.364C275.128 150.79 274.599 151.392 274.261 152.102C273.923 152.813 273.788 153.603 273.873 154.385C273.957 155.168 274.257 155.911 274.739 156.532C275.169 157.092 275.731 157.535 276.376 157.822C277.02 158.109 277.725 158.23 278.428 158.174C279.131 158.118 279.808 157.887 280.4 157.503C280.991 157.118 281.477 156.591 281.813 155.971C282.15 155.35 282.327 154.655 282.327 153.949C282.328 153.243 282.153 152.547 281.817 151.926C281.482 151.305 280.997 150.777 280.406 150.392C279.816 150.006 279.139 149.774 278.436 149.717L277.999 149.688Z" fill="black"/>
<path d="M211.571 252.843C211.606 253.328 211.45 253.807 211.136 254.177C210.822 254.548 210.375 254.78 209.892 254.823H193.916C193.45 254.743 193.026 254.501 192.721 254.139C192.415 253.776 192.248 253.317 192.248 252.843C192.248 252.369 192.415 251.91 192.721 251.547C193.026 251.185 193.45 250.943 193.916 250.863H209.821C210.067 250.876 210.307 250.937 210.529 251.044C210.75 251.151 210.948 251.301 211.111 251.485C211.274 251.67 211.398 251.885 211.477 252.118C211.556 252.351 211.588 252.598 211.571 252.843Z" fill="white"/>
<path d="M209.821 255.487H193.917C193.264 255.42 192.659 255.112 192.22 254.623C191.78 254.135 191.537 253.501 191.537 252.843C191.537 252.186 191.78 251.551 192.22 251.063C192.659 250.574 193.264 250.267 193.917 250.199H209.821C210.474 250.267 211.079 250.574 211.518 251.063C211.958 251.551 212.201 252.186 212.201 252.843C212.201 253.501 211.958 254.135 211.518 254.623C211.079 255.112 210.474 255.42 209.821 255.487ZM193.917 251.542C193.629 251.617 193.373 251.785 193.191 252.02C193.009 252.256 192.91 252.545 192.91 252.843C192.91 253.141 193.009 253.431 193.191 253.666C193.373 253.902 193.629 254.07 193.917 254.144H209.821C210.076 254.035 210.293 253.854 210.446 253.623C210.598 253.392 210.679 253.12 210.679 252.843C210.679 252.566 210.598 252.295 210.446 252.063C210.293 251.832 210.076 251.651 209.821 251.542H193.917Z" fill="black"/>
<path d="M230.891 252.843C230.948 253.303 230.823 253.767 230.544 254.137C230.265 254.507 229.853 254.753 229.395 254.823H213.448C213.014 254.705 212.63 254.448 212.357 254.09C212.083 253.732 211.935 253.294 211.935 252.843C211.935 252.392 212.083 251.954 212.357 251.596C212.63 251.238 213.014 250.981 213.448 250.863H229.395C229.853 250.934 230.265 251.18 230.544 251.549C230.823 251.919 230.948 252.383 230.891 252.843Z" fill="white"/>
<path d="M229.395 255.487H213.448C212.842 255.361 212.297 255.029 211.906 254.547C211.515 254.066 211.301 253.464 211.301 252.843C211.301 252.222 211.515 251.62 211.906 251.139C212.297 250.657 212.842 250.325 213.448 250.199H229.395C230.002 250.325 230.547 250.657 230.938 251.139C231.329 251.62 231.542 252.222 231.542 252.843C231.542 253.464 231.329 254.066 230.938 254.547C230.547 255.029 230.002 255.361 229.395 255.487ZM213.448 251.542C213.067 251.542 212.63 252.08 212.63 252.843C212.63 253.607 213.067 254.144 213.448 254.144H229.395C229.79 254.144 230.214 253.607 230.214 252.843C230.214 252.08 229.79 251.542 229.395 251.542H213.448Z" fill="black"/>
<path d="M207.337 184.304L204.515 180.345C204.317 179.793 205.235 178.931 205.235 178.931L211.416 179.949C211.416 179.949 212.023 181.009 211.67 181.462L207.733 184.29L207.337 184.304Z" fill="black"/>
<path d="M264.606 216.021C264.606 216.021 252.398 201.146 261.261 192.223C262.037 191.782 262.91 191.54 263.801 191.516C263.801 191.516 265.678 192.562 263.237 195.122C263.237 195.122 259.822 200.778 263.477 202.263C263.477 202.263 267.273 200.849 267.711 198.685C267.711 198.685 269.376 197.271 269.573 200.099C269.108 201.37 268.3 202.486 267.238 203.322C266.176 204.159 264.903 204.683 263.561 204.836C263.561 204.836 264.973 211.412 268.402 213.547C267.071 214.299 265.789 215.135 264.563 216.05" fill="#774233"/>
<path d="M264.648 217.025L264.169 216.375C264.042 216.219 251.75 200.99 260.866 191.827L260.979 191.742C261.844 191.258 262.811 190.986 263.802 190.95H264.07C264.324 191.101 264.541 191.305 264.707 191.55C264.873 191.794 264.983 192.072 265.029 192.364C265.051 192.936 264.941 193.504 264.709 194.027C264.477 194.549 264.127 195.011 263.689 195.376C263.138 196.309 261.953 198.869 262.489 200.439C262.567 200.684 262.695 200.91 262.865 201.102C263.035 201.294 263.244 201.449 263.477 201.556C264.578 201.089 266.892 199.859 267.217 198.473V198.303L267.344 198.176C267.692 197.877 268.128 197.698 268.586 197.667C269.221 197.667 269.997 198.063 270.138 199.944V200.156C269.683 201.428 268.905 202.561 267.88 203.441C266.856 204.321 265.62 204.919 264.296 205.176C264.733 206.788 266.158 211.327 268.727 212.953L269.517 213.462L268.727 213.999C267.457 214.711 266.231 215.499 265.058 216.361L264.648 217.025ZM261.614 192.675C254.135 200.283 262.8 212.712 264.691 215.215C265.241 214.819 266.102 214.225 267.428 213.462C264.408 210.874 263.195 205.19 263.054 204.978L262.927 204.37H263.533C264.75 204.228 265.906 203.759 266.877 203.012C267.849 202.265 268.6 201.268 269.051 200.127C269.051 199.35 268.783 199.01 268.628 199.01C268.491 199.023 268.36 199.072 268.247 199.152C267.541 201.358 264.013 202.758 263.675 202.913H263.265C262.835 202.756 262.446 202.504 262.126 202.176C261.806 201.848 261.564 201.452 261.417 201.018C260.598 198.586 262.658 195.108 262.743 194.952L262.828 194.867C263.83 193.821 263.971 193.142 263.914 192.76C263.888 192.546 263.782 192.349 263.618 192.209C262.926 192.228 262.244 192.387 261.614 192.675Z" fill="black"/>
<path d="M287.609 218.963C287.609 218.963 303.133 202.857 295.103 193.17C294.363 192.672 293.517 192.352 292.633 192.237C292.633 192.237 290.672 193.114 292.873 195.885C292.873 195.885 295.696 201.838 291.998 202.956C291.998 202.956 288.329 201.146 288.047 199.01C288.047 199.01 286.523 197.427 286.071 200.212C286.413 201.527 287.115 202.72 288.097 203.657C289.079 204.594 290.304 205.238 291.631 205.515C291.631 205.515 288.809 212.232 285.21 213.999C285.21 213.999 287.397 218.524 287.609 218.934" fill="#774233"/>
<path d="M287.468 219.938L287.101 219.217C286.904 218.793 284.702 214.268 284.702 214.268L284.462 213.773L284.956 213.533C287.68 212.119 290.051 207.523 290.827 205.868C289.543 205.485 288.38 204.776 287.451 203.81C286.521 202.843 285.856 201.653 285.52 200.354V200.142C285.803 198.388 286.565 198.02 287.143 198.02C287.638 198.064 288.102 198.279 288.456 198.629L288.583 198.77V198.94C288.78 200.354 290.968 201.768 292.026 202.362C292.27 202.277 292.493 202.141 292.68 201.963C292.868 201.785 293.015 201.569 293.113 201.329C293.79 199.802 292.845 197.158 292.379 196.182C291.975 195.778 291.669 195.286 291.485 194.744C291.301 194.202 291.245 193.625 291.321 193.057C291.391 192.77 291.523 192.502 291.709 192.273C291.894 192.043 292.128 191.857 292.393 191.728H292.676C293.658 191.845 294.597 192.2 295.413 192.76L295.512 192.859C303.768 202.758 288.653 218.736 288.004 219.401L287.468 219.938ZM285.944 214.282C286.353 215.145 287.242 216.969 287.75 218.001C290.389 215.046 301.383 201.796 294.708 193.623C294.127 193.206 293.462 192.922 292.76 192.789C292.585 192.92 292.465 193.111 292.421 193.326C292.337 193.694 292.421 194.386 293.311 195.503L293.423 195.617C293.508 195.758 295.23 199.406 294.2 201.768C294.018 202.187 293.743 202.559 293.396 202.856C293.048 203.153 292.638 203.366 292.196 203.479L291.984 203.549L291.786 203.45C291.391 203.252 288.075 201.541 287.553 199.293C287.448 199.196 287.314 199.136 287.172 199.123C287.031 199.123 286.805 199.449 286.678 200.184C287.009 201.366 287.66 202.433 288.559 203.266C289.459 204.1 290.571 204.668 291.772 204.907L292.436 205.062L292.167 205.685C292.012 205.982 289.387 212.062 285.944 214.254V214.282Z" fill="black"/>
<path d="M262.771 236.087C262.771 236.087 245.611 237.133 259.356 251.189C259.356 251.189 256.181 246.692 261.558 244.019" fill="#FFC424"/>
<path d="M258.961 251.57C254.417 246.932 252.681 243.086 253.782 240.258C255.405 236.016 262.447 235.563 262.743 235.549V236.666C262.743 236.666 256.124 237.119 254.77 240.668C253.979 242.69 255.009 245.405 257.818 248.757C257.759 248.212 257.797 247.661 257.931 247.13C258.177 246.32 258.601 245.575 259.173 244.951C259.744 244.327 260.448 243.839 261.233 243.525L261.727 244.543C261.096 244.786 260.527 245.166 260.058 245.655C259.59 246.143 259.235 246.729 259.017 247.371C258.802 248.582 259.065 249.829 259.751 250.849L258.961 251.57Z" fill="black"/>
<path d="M285.888 247.342C285.888 247.342 291.222 260.069 290.418 267.436C290.418 267.436 277.646 257.679 272.989 255.855H272.692C268.021 257.665 255.32 267.436 255.32 267.436C254.516 260.055 259.836 247.342 259.836 247.342L264.507 234.955H281.809L285.888 247.342Z" fill="#FFC424"/>
<path d="M255.32 268.016C255.245 268.03 255.169 268.03 255.094 268.016C255.003 267.977 254.924 267.915 254.864 267.835C254.805 267.756 254.767 267.662 254.755 267.563C253.951 260.125 259.102 247.767 259.328 247.173L263.985 234.814C264.025 234.707 264.096 234.615 264.189 234.549C264.282 234.484 264.393 234.448 264.507 234.446H281.809C281.927 234.445 282.043 234.484 282.137 234.555C282.232 234.627 282.3 234.728 282.331 234.842L286.367 247.159C286.565 247.654 291.716 260.069 290.911 267.507C290.904 267.607 290.868 267.703 290.808 267.783C290.748 267.863 290.667 267.924 290.573 267.959C290.489 268.008 290.394 268.033 290.298 268.033C290.201 268.033 290.106 268.008 290.022 267.959C289.895 267.846 277.42 258.33 272.819 256.477H272.735C268.106 258.344 255.658 267.79 255.531 267.959C255.465 267.991 255.393 268.01 255.32 268.016ZM264.902 235.493L260.358 247.512C260.358 247.639 255.56 259.079 255.8 266.333C258.735 264.127 268.501 256.873 272.551 255.289C272.625 255.27 272.703 255.27 272.777 255.289H273.257C277.307 256.859 287.059 264.113 289.994 266.319C290.234 259.065 285.492 247.625 285.436 247.512L281.47 235.479L264.902 235.493Z" fill="black"/>
<path d="M277.053 247.3C277.053 248.464 276.709 249.601 276.064 250.568C275.419 251.536 274.502 252.29 273.429 252.735C272.356 253.18 271.176 253.296 270.037 253.069C268.898 252.842 267.852 252.282 267.031 251.46C266.21 250.637 265.651 249.589 265.424 248.448C265.198 247.307 265.314 246.124 265.758 245.049C266.203 243.974 266.955 243.055 267.921 242.409C268.886 241.763 270.021 241.418 271.182 241.418C272.739 241.418 274.233 242.037 275.334 243.141C276.435 244.244 277.053 245.74 277.053 247.3Z" fill="#F89727"/>
<path d="M271.182 253.748C269.909 253.748 268.665 253.37 267.607 252.661C266.549 251.953 265.724 250.946 265.237 249.768C264.75 248.589 264.622 247.293 264.871 246.042C265.119 244.791 265.732 243.642 266.632 242.741C267.532 241.839 268.678 241.225 269.927 240.976C271.175 240.727 272.469 240.855 273.645 241.343C274.821 241.831 275.826 242.657 276.533 243.718C277.24 244.778 277.618 246.025 277.618 247.3C277.618 249.01 276.94 250.65 275.733 251.86C274.526 253.069 272.889 253.748 271.182 253.748ZM271.182 241.983C270.129 241.98 269.098 242.291 268.221 242.876C267.344 243.46 266.66 244.293 266.255 245.268C265.851 246.242 265.744 247.315 265.949 248.351C266.154 249.386 266.661 250.337 267.406 251.084C268.151 251.83 269.1 252.338 270.134 252.543C271.167 252.749 272.238 252.642 273.211 252.237C274.183 251.831 275.014 251.146 275.598 250.267C276.181 249.388 276.491 248.356 276.489 247.3C276.485 245.891 275.925 244.541 274.93 243.545C273.936 242.548 272.588 241.987 271.182 241.983Z" fill="black"/>
<path d="M284.956 233.867C284.956 233.867 295.893 221.621 276.065 203.889C275.536 205.548 274.675 207.083 273.535 208.398C272.395 209.713 270.999 210.782 269.432 211.539C269.432 211.539 256.251 218.468 263.237 230.968L284.956 233.867Z" fill="#FFC424"/>
<path d="M284.956 234.432L263.011 232.141C262.92 232.13 262.833 232.098 262.757 232.046C262.681 231.994 262.618 231.925 262.574 231.845C255.39 218.948 268.981 211.171 269.108 211.044C270.602 210.315 271.934 209.292 273.025 208.036C274.116 206.78 274.944 205.317 275.458 203.733C275.487 203.642 275.537 203.559 275.603 203.491C275.669 203.422 275.75 203.37 275.839 203.337C275.932 203.315 276.03 203.314 276.123 203.336C276.216 203.359 276.303 203.402 276.376 203.465C283.996 210.28 288.061 217.11 288.428 223.756C288.736 227.521 287.623 231.266 285.309 234.248C285.218 234.352 285.092 234.417 284.956 234.432ZM263.42 231.053L284.589 233.287C286 231.576 293.339 220.56 276.122 204.879C274.908 208.026 272.541 210.591 269.503 212.048C269.136 212.317 257.098 219.288 263.42 231.053Z" fill="black"/>
<path d="M285.224 234.305C285.224 234.305 283.813 224.562 299.337 226.471C299.337 226.471 296.26 237.883 285.224 234.305Z" fill="#8DC63F"/>
<path d="M289.26 235.563C287.82 235.548 286.391 235.305 285.027 234.842L284.702 234.729V234.39C284.598 233.404 284.691 232.406 284.977 231.457C285.263 230.507 285.736 229.625 286.367 228.861C288.71 226.146 293.113 225.142 299.337 225.906L299.986 225.99L299.817 226.613C299.803 226.726 297.319 235.563 289.26 235.563ZM285.746 233.881C286.885 234.234 288.069 234.419 289.26 234.432C295.272 234.432 297.827 228.861 298.532 226.952C293.057 226.386 289.232 227.291 287.242 229.596C286.241 230.795 285.709 232.318 285.746 233.881Z" fill="black"/>
<path d="M283.234 235.733C283.234 235.733 292.182 232.382 298.363 244.147C298.363 244.147 285.182 247.781 283.234 235.733Z" fill="#8DC63F"/>
<path d="M294.059 245.221C290.375 245.221 283.996 244.005 282.684 235.832V235.38L283.107 235.21C284.151 234.87 285.242 234.703 286.339 234.715C289.895 234.715 294.976 236.313 298.941 243.878L299.266 244.5L298.589 244.684C297.107 245.054 295.585 245.235 294.059 245.221ZM283.883 236.129C285.154 242.704 290.093 244.09 294.059 244.09C295.221 244.067 296.379 243.934 297.516 243.694C293.875 237.19 289.416 235.79 286.226 235.79C285.435 235.812 284.649 235.926 283.883 236.129Z" fill="black"/>
<path d="M271.196 220.094C271.158 220.327 271.036 220.539 270.852 220.688C270.668 220.836 270.436 220.912 270.2 220.899C269.964 220.887 269.74 220.788 269.573 220.621C269.405 220.454 269.305 220.231 269.291 219.995C269.309 219.744 269.424 219.509 269.61 219.34C269.797 219.172 270.042 219.082 270.293 219.09C270.545 219.104 270.781 219.218 270.951 219.406C271.12 219.594 271.208 219.841 271.196 220.094Z" fill="black"/>
<path d="M270.237 221.564C270.038 221.56 269.842 221.514 269.662 221.429C269.482 221.344 269.322 221.221 269.193 221.069C269.056 220.925 268.952 220.753 268.886 220.566C268.821 220.378 268.795 220.179 268.812 219.981C268.833 219.598 269 219.238 269.279 218.975C269.557 218.712 269.925 218.566 270.307 218.567C270.685 218.603 271.035 218.779 271.289 219.06C271.544 219.341 271.685 219.707 271.685 220.087C271.685 220.466 271.544 220.832 271.289 221.113C271.035 221.394 270.685 221.57 270.307 221.607L270.237 221.564ZM270.237 219.655C270.135 219.655 270.037 219.692 269.961 219.76C269.886 219.828 269.838 219.922 269.828 220.023C269.824 220.074 269.831 220.126 269.848 220.175C269.865 220.223 269.892 220.268 269.926 220.306C269.996 220.382 270.092 220.427 270.195 220.433C270.285 220.416 270.366 220.368 270.425 220.297C270.483 220.226 270.515 220.136 270.515 220.044C270.515 219.952 270.483 219.863 270.425 219.792C270.366 219.721 270.285 219.673 270.195 219.655H270.237Z" fill="black"/>
<path d="M277.025 220.362C277.012 220.621 276.897 220.864 276.705 221.038C276.513 221.212 276.26 221.302 276.002 221.289C275.743 221.276 275.501 221.16 275.328 220.968C275.154 220.776 275.064 220.522 275.077 220.263C275.083 220.14 275.113 220.018 275.165 219.906C275.218 219.794 275.293 219.693 275.385 219.61C275.477 219.528 275.584 219.464 275.701 219.423C275.818 219.382 275.942 219.365 276.065 219.373C276.189 219.378 276.311 219.408 276.424 219.461C276.537 219.513 276.638 219.588 276.722 219.68C276.806 219.772 276.871 219.879 276.913 219.997C276.955 220.114 276.974 220.238 276.968 220.362" fill="black"/>
<path d="M276.079 221.833H275.995C275.596 221.808 275.225 221.625 274.96 221.326C274.696 221.026 274.56 220.634 274.583 220.235C274.634 219.859 274.824 219.515 275.115 219.272C275.407 219.03 275.779 218.906 276.158 218.925C276.536 218.945 276.894 219.107 277.159 219.378C277.424 219.65 277.578 220.011 277.589 220.391C277.571 220.78 277.404 221.147 277.123 221.415C276.842 221.684 276.468 221.833 276.079 221.833ZM276.079 219.924C275.978 219.924 275.88 219.961 275.804 220.029C275.728 220.097 275.681 220.191 275.67 220.292C275.666 220.394 275.702 220.495 275.771 220.571C275.839 220.648 275.935 220.695 276.037 220.702C276.136 220.702 276.23 220.664 276.302 220.595C276.373 220.526 276.414 220.433 276.418 220.334C276.422 220.231 276.386 220.131 276.317 220.055C276.249 219.978 276.153 219.931 276.051 219.924H276.079Z" fill="black"/>
<path d="M266.088 226.188C266.088 226.188 266.172 224.18 268.91 224.364C270.469 224.979 272.093 225.41 273.751 225.651C275.194 225.744 276.643 225.668 278.069 225.425C278.069 225.425 280.511 224.576 281.188 226.613C281.188 226.613 282.345 231.279 272.918 230.303C272.918 230.303 265.679 229.95 266.102 226.188" fill="white"/>
<path d="M275.317 230.968C274.492 230.967 273.668 230.92 272.848 230.826C272.678 230.826 268.078 230.572 266.285 228.465C266.01 228.157 265.805 227.792 265.686 227.396C265.566 227.001 265.535 226.583 265.594 226.174C265.594 225.354 266.342 223.714 268.924 223.883H269.065C270.566 224.489 272.135 224.912 273.737 225.142C273.737 225.142 274.344 225.142 275.148 225.142C276.094 225.162 277.04 225.086 277.97 224.916C278.371 224.784 278.79 224.717 279.212 224.718C279.756 224.681 280.297 224.831 280.745 225.142C281.194 225.452 281.524 225.906 281.682 226.429C281.771 226.878 281.763 227.342 281.658 227.788C281.554 228.235 281.355 228.654 281.075 229.016C280.059 230.303 278.126 230.968 275.317 230.968ZM268.557 224.887C266.666 224.887 266.596 226.188 266.596 226.301C266.554 226.581 266.575 226.867 266.655 227.138C266.735 227.409 266.874 227.659 267.061 227.871C268.317 229.285 271.719 229.822 272.932 229.879C276.771 230.289 279.226 229.794 280.243 228.465C280.443 228.227 280.589 227.948 280.672 227.648C280.755 227.348 280.772 227.033 280.722 226.726C280.626 226.413 280.424 226.143 280.151 225.962C279.879 225.782 279.552 225.702 279.226 225.736C278.896 225.741 278.568 225.794 278.253 225.891C277.231 226.098 276.19 226.193 275.148 226.174C274.344 226.174 273.737 226.174 273.737 226.174C272.048 225.946 270.393 225.509 268.811 224.873L268.557 224.887Z" fill="black"/>
<path d="M269.661 224.598L268.848 229.207L269.834 229.381L270.647 224.772L269.661 224.598Z" fill="black"/>
<path d="M273.329 225.626L273.105 230.315L274.119 230.364L274.343 225.675L273.329 225.626Z" fill="black"/>
<path d="M278.12 225.462L277.125 225.581L277.661 230.088L278.656 229.97L278.12 225.462Z" fill="black"/>
<path d="M281.597 234.376C281.597 234.376 306.28 237.897 287.779 251.203C287.779 251.203 287.694 248.375 282.134 244.133" fill="#FFC424"/>
<path d="M287.778 251.768C287.696 251.795 287.607 251.795 287.524 251.768C287.433 251.726 287.355 251.658 287.3 251.573C287.245 251.488 287.215 251.389 287.214 251.288C287.214 251.288 287.002 248.559 281.809 244.642C281.689 244.552 281.61 244.418 281.589 244.269C281.568 244.121 281.606 243.97 281.696 243.85C281.74 243.79 281.796 243.74 281.861 243.702C281.925 243.664 281.996 243.64 282.07 243.631C282.144 243.622 282.219 243.627 282.29 243.648C282.362 243.669 282.429 243.704 282.486 243.751C286.395 246.692 287.694 249.068 288.131 250.326C292.619 246.961 294.595 244.019 294.002 241.587C292.817 236.666 281.654 235.012 281.555 234.998C281.477 234.993 281.401 234.972 281.332 234.937C281.263 234.901 281.202 234.852 281.152 234.791C281.103 234.731 281.067 234.661 281.046 234.586C281.025 234.511 281.02 234.432 281.03 234.355C281.041 234.278 281.068 234.204 281.108 234.137C281.149 234.071 281.203 234.014 281.267 233.969C281.331 233.925 281.403 233.894 281.479 233.879C281.555 233.863 281.634 233.864 281.71 233.881C282.204 233.881 293.72 235.662 295.103 241.305C295.851 244.359 293.494 247.866 288.047 251.726C287.962 251.762 287.87 251.776 287.778 251.768Z" fill="black"/>
<path d="M258.862 232.566C258.862 232.566 259.469 231.449 262.122 231.59L285.803 232.82C285.803 232.82 288.272 234.687 284.222 236.596L262.658 240.866C262.115 240.913 261.573 240.773 261.12 240.47C260.863 240.268 260.649 240.016 260.491 239.73C260.332 239.443 260.233 239.127 260.199 238.802C260.165 238.476 260.196 238.147 260.291 237.833C260.387 237.52 260.544 237.229 260.753 236.978C260.753 236.978 257.154 235.776 258.862 232.636" fill="#8DC63F"/>
<path d="M262.517 241.375C261.889 241.407 261.268 241.228 260.753 240.866C260.216 240.447 259.842 239.852 259.698 239.186C259.554 238.519 259.647 237.822 259.963 237.218C259.103 236.798 258.418 236.087 258.029 235.21C257.867 234.73 257.812 234.221 257.868 233.717C257.924 233.214 258.09 232.729 258.354 232.297C258.439 232.156 259.173 230.883 262.15 231.024L285.831 232.269C285.944 232.27 286.054 232.31 286.141 232.382C286.45 232.619 286.697 232.926 286.864 233.277C287.031 233.629 287.112 234.015 287.101 234.404C286.988 235.422 286.113 236.327 284.462 237.105H284.335L262.771 241.347C262.688 241.368 262.603 241.377 262.517 241.375ZM261.67 232.141C259.822 232.141 259.342 232.849 259.342 232.849C259.156 233.134 259.036 233.457 258.992 233.795C258.948 234.133 258.981 234.476 259.088 234.8C259.493 235.545 260.163 236.111 260.965 236.384C261.047 236.406 261.123 236.449 261.185 236.508C261.246 236.567 261.292 236.641 261.318 236.723C261.356 236.797 261.376 236.88 261.376 236.963C261.376 237.047 261.356 237.129 261.318 237.204C261.14 237.403 261.006 237.636 260.923 237.89C260.84 238.143 260.811 238.411 260.836 238.676C260.861 238.942 260.941 239.199 261.07 239.433C261.199 239.666 261.374 239.87 261.586 240.032C261.893 240.226 262.253 240.319 262.616 240.301H262.729L284.137 236.058C285.337 235.479 286.014 234.856 286.085 234.291C286.085 234.117 286.049 233.946 285.978 233.787C285.908 233.629 285.805 233.487 285.676 233.372L262.094 232.156L261.67 232.141Z" fill="black"/>
<path d="M287.143 217.365C287.877 219.698 285.817 222.455 282.543 223.502C279.269 224.548 275.98 223.502 275.232 221.197C274.485 218.892 276.545 216.12 279.833 215.06C283.121 213.999 286.381 215.06 287.143 217.365Z" fill="black"/>
<path d="M279.96 224.491C278.866 224.596 277.766 224.35 276.82 223.788C275.874 223.227 275.131 222.379 274.696 221.366C273.864 218.75 276.108 215.71 279.65 214.522C280.561 214.226 281.514 214.078 282.472 214.084C283.567 213.978 284.668 214.221 285.616 214.78C286.564 215.339 287.311 216.184 287.75 217.195C288.583 219.825 286.339 222.851 282.783 224.039C281.872 224.341 280.919 224.494 279.96 224.491ZM282.402 215.201C281.587 215.209 280.777 215.343 280.003 215.597C277.011 216.559 275.12 218.991 275.769 221.027C276.14 221.813 276.749 222.462 277.509 222.881C278.269 223.3 279.142 223.467 280.003 223.36C280.817 223.359 281.627 223.23 282.402 222.978C285.394 222.017 287.299 219.571 286.636 217.534C286.263 216.75 285.654 216.102 284.894 215.684C284.134 215.265 283.263 215.096 282.402 215.201Z" fill="black"/>
<path d="M262.376 215.116C261.219 217.266 262.743 220.348 265.791 221.974C268.84 223.601 272.241 223.191 273.398 221.027C274.555 218.864 273.017 215.795 269.969 214.155C266.92 212.514 263.533 212.953 262.376 215.116Z" fill="black"/>
<path d="M269.432 223.53C268.041 223.509 266.675 223.15 265.453 222.484C263.955 221.711 262.728 220.497 261.939 219.005C261.58 218.378 261.382 217.672 261.359 216.949C261.337 216.227 261.493 215.51 261.812 214.862C262.254 214.116 262.895 213.508 263.663 213.106C264.43 212.704 265.294 212.524 266.158 212.585C267.561 212.604 268.937 212.968 270.166 213.646C273.483 215.427 275.12 218.849 273.821 221.282C273.372 222.029 272.723 222.636 271.947 223.033C271.171 223.43 270.301 223.602 269.432 223.53ZM266.13 213.731C265.474 213.678 264.817 213.807 264.229 214.104C263.642 214.4 263.147 214.854 262.8 215.413C262.57 215.905 262.463 216.444 262.488 216.986C262.512 217.528 262.668 218.056 262.941 218.524C263.623 219.815 264.688 220.862 265.989 221.522C267.041 222.119 268.224 222.449 269.432 222.484C270.092 222.542 270.755 222.419 271.349 222.128C271.944 221.836 272.447 221.387 272.805 220.829C273.807 218.948 272.368 216.205 269.616 214.72C268.558 214.12 267.373 213.781 266.158 213.731H266.13Z" fill="black"/>
<path d="M277.547 221.183L273.031 220.773C272.957 220.767 272.885 220.747 272.82 220.713C272.754 220.68 272.696 220.633 272.648 220.576C272.601 220.52 272.565 220.454 272.544 220.383C272.522 220.312 272.515 220.238 272.523 220.164C272.541 220.018 272.613 219.884 272.726 219.79C272.839 219.695 272.983 219.647 273.13 219.655L277.646 220.066C277.793 220.08 277.929 220.152 278.024 220.265C278.119 220.379 278.166 220.526 278.154 220.674C278.149 220.747 278.129 220.819 278.095 220.885C278.061 220.951 278.015 221.01 277.958 221.057C277.902 221.105 277.836 221.14 277.765 221.162C277.695 221.183 277.62 221.19 277.547 221.183Z" fill="black"/>
<path d="M271.027 216.587C271.018 216.697 270.987 216.805 270.936 216.903C270.885 217.001 270.814 217.088 270.728 217.158C270.643 217.228 270.544 217.28 270.437 217.311C270.331 217.341 270.22 217.35 270.11 217.336C270 217.327 269.894 217.297 269.796 217.247C269.698 217.196 269.612 217.127 269.541 217.043C269.47 216.959 269.416 216.861 269.383 216.756C269.35 216.652 269.338 216.541 269.348 216.431C269.369 216.209 269.478 216.003 269.649 215.86C269.821 215.717 270.042 215.648 270.265 215.668C270.487 215.689 270.692 215.798 270.835 215.97C270.978 216.142 271.047 216.364 271.027 216.587Z" fill="white"/>
<path d="M284.392 217.803C284.37 218.022 284.263 218.224 284.094 218.364C283.925 218.504 283.707 218.572 283.488 218.552C283.378 218.545 283.271 218.516 283.172 218.466C283.073 218.417 282.986 218.347 282.915 218.263C282.843 218.178 282.79 218.08 282.758 217.974C282.725 217.869 282.715 217.757 282.726 217.647C282.747 217.426 282.854 217.222 283.025 217.08C283.196 216.938 283.416 216.87 283.637 216.891C283.857 216.912 284.061 217.019 284.203 217.19C284.344 217.361 284.412 217.582 284.392 217.803Z" fill="white"/>
<path d="M277.124 221.805C277.09 222.519 276.845 223.207 276.421 223.782C275.997 224.358 275.413 224.794 274.742 225.037C274.07 225.28 273.342 225.318 272.65 225.146C271.957 224.975 271.33 224.602 270.849 224.074C270.367 223.547 270.052 222.888 269.944 222.181C269.836 221.474 269.939 220.751 270.24 220.103C270.542 219.455 271.028 218.911 271.638 218.539C272.247 218.168 272.953 217.985 273.666 218.015C274.141 218.037 274.606 218.152 275.037 218.355C275.467 218.557 275.853 218.842 276.172 219.194C276.492 219.546 276.74 219.958 276.901 220.406C277.061 220.854 277.132 221.329 277.11 221.805" fill="#EF424C"/>
<path d="M275.896 220.589C275.892 220.739 275.859 220.887 275.797 221.024C275.734 221.161 275.645 221.284 275.535 221.386C275.424 221.488 275.294 221.566 275.152 221.616C275.011 221.666 274.86 221.687 274.71 221.678C274.484 221.669 274.265 221.593 274.082 221.459C273.899 221.326 273.759 221.141 273.681 220.928C273.603 220.715 273.59 220.483 273.643 220.262C273.697 220.042 273.815 219.842 273.982 219.689C274.149 219.535 274.358 219.435 274.582 219.401C274.806 219.366 275.035 219.4 275.24 219.496C275.445 219.593 275.617 219.748 275.734 219.942C275.85 220.137 275.907 220.362 275.896 220.589Z" fill="white"/>
<path d="M247.967 230.798C247.678 232.76 246.624 234.527 245.037 235.711C243.45 236.896 241.459 237.402 239.5 237.119L237.595 236.836C235.641 236.539 233.884 235.481 232.705 233.892C231.526 232.303 231.021 230.312 231.3 228.352C231.593 226.393 232.649 224.63 234.235 223.448C235.822 222.266 237.811 221.762 239.768 222.045L241.673 222.328C243.628 222.622 245.388 223.679 246.567 225.269C247.747 226.859 248.25 228.852 247.967 230.812V230.798Z" fill="#FEC057"/>
<path d="M240.586 237.883C240.18 237.885 239.774 237.852 239.373 237.784L237.468 237.501C235.425 237.204 233.571 236.142 232.279 234.529C230.986 232.916 230.352 230.872 230.505 228.81C230.657 226.747 231.584 224.819 233.098 223.414C234.613 222.009 236.603 221.232 238.667 221.239C239.068 221.239 239.469 221.268 239.867 221.324L241.772 221.607C243.798 221.925 245.63 222.994 246.906 224.603C248.181 226.212 248.806 228.242 248.657 230.292C248.508 232.341 247.595 234.259 246.1 235.665C244.605 237.071 242.637 237.863 240.586 237.883ZM238.667 222.611C236.962 222.627 235.324 223.285 234.08 224.454C232.836 225.623 232.076 227.218 231.949 228.922C231.823 230.627 232.341 232.316 233.4 233.656C234.458 234.996 235.981 235.889 237.665 236.157L239.57 236.44C239.909 236.461 240.248 236.461 240.586 236.44C242.213 236.429 243.782 235.838 245.013 234.773C246.244 233.708 247.056 232.239 247.304 230.628C247.563 228.842 247.105 227.026 246.032 225.577C244.958 224.127 243.356 223.163 241.574 222.894L239.669 222.611C239.336 222.583 239.001 222.583 238.667 222.611Z" fill="black"/>
<path d="M190.304 204.723C190.089 205.873 189.649 206.968 189.01 207.947C188.37 208.925 187.544 209.767 186.579 210.424C185.613 211.081 184.528 211.541 183.384 211.776C182.241 212.011 181.063 212.017 179.917 211.793L177.701 211.284C176.555 211.067 175.463 210.625 174.487 209.984C173.512 209.343 172.672 208.516 172.016 207.549C171.361 206.582 170.902 205.495 170.667 204.35C170.432 203.205 170.424 202.025 170.645 200.877C170.868 199.734 171.314 198.646 171.956 197.675C172.599 196.705 173.426 195.871 174.391 195.221C175.356 194.571 176.439 194.118 177.578 193.887C178.717 193.657 179.891 193.653 181.032 193.877L183.262 194.316C184.408 194.533 185.5 194.975 186.476 195.616C187.451 196.257 188.291 197.084 188.947 198.051C189.602 199.018 190.061 200.105 190.296 201.25C190.531 202.395 190.539 203.575 190.318 204.723H190.304Z" fill="#FEC057"/>
<path d="M181.625 212.585C181.008 212.588 180.394 212.526 179.79 212.401L177.546 211.963C175.215 211.517 173.133 210.214 171.71 208.31C170.287 206.407 169.624 204.039 169.852 201.672C170.08 199.304 171.182 197.107 172.942 195.511C174.702 193.915 176.993 193.035 179.367 193.043C179.982 193.048 180.597 193.11 181.201 193.227L183.431 193.665C185.761 194.111 187.842 195.413 189.265 197.315C190.688 199.217 191.351 201.583 191.126 203.949C190.9 206.316 189.8 208.513 188.043 210.11C186.286 211.707 183.997 212.59 181.625 212.585ZM179.367 194.401C177.327 194.39 175.358 195.144 173.846 196.515C172.333 197.885 171.386 199.773 171.192 201.807C170.997 203.841 171.569 205.874 172.794 207.507C174.02 209.141 175.81 210.256 177.814 210.634L180.044 211.072C180.564 211.181 181.094 211.233 181.625 211.228C183.664 211.238 185.633 210.484 187.146 209.113C188.658 207.743 189.605 205.855 189.799 203.821C189.994 201.787 189.422 199.754 188.197 198.121C186.972 196.488 185.181 195.372 183.177 194.994L180.947 194.556C180.427 194.451 179.898 194.394 179.367 194.386V194.401Z" fill="black"/>
<path d="M176.812 203.139C173.048 203.913 169.387 205.123 165.903 206.745C165.903 206.745 170.645 216.021 176.812 215.413L180.524 206.929C180.524 206.929 179.324 202.531 176.84 203.125" fill="#B91F25"/>
<path d="M176.191 216.092C169.968 216.092 165.494 207.424 165.31 207.056L165 206.448L165.607 206.137C169.144 204.486 172.862 203.257 176.685 202.475C176.875 202.429 177.069 202.405 177.264 202.404C179.889 202.404 181.018 206.321 181.145 206.773V207L177.278 216.021H176.883L176.191 216.092ZM166.849 207.042C167.95 208.951 171.661 214.735 176.191 214.735H176.361L179.776 206.929C179.423 205.84 178.365 203.493 176.953 203.818C173.481 204.534 170.095 205.615 166.849 207.042Z" fill="black"/>
<path d="M181.935 208.626C180.767 207.817 179.786 206.768 179.056 205.549C178.325 204.33 177.864 202.968 177.701 201.556C177.137 196.126 180.016 195.588 181.582 196.126C182.58 196.412 183.466 197 184.118 197.81C184.77 198.62 185.156 199.612 185.223 200.651" fill="#FEC057"/>
<path d="M181.935 209.305C181.81 209.309 181.687 209.274 181.582 209.206C180.311 208.348 179.242 207.223 178.45 205.909C177.658 204.595 177.162 203.124 176.996 201.598C176.713 198.883 177.207 196.988 178.407 195.942C178.869 195.595 179.41 195.368 179.982 195.282C180.553 195.196 181.137 195.252 181.681 195.447C182.819 195.768 183.827 196.439 184.564 197.365C185.3 198.291 185.729 199.425 185.788 200.608C185.802 200.705 185.795 200.803 185.767 200.896C185.74 200.99 185.693 201.076 185.63 201.15C185.566 201.224 185.487 201.283 185.399 201.323C185.311 201.364 185.214 201.385 185.117 201.385C185.02 201.385 184.924 201.364 184.836 201.323C184.747 201.283 184.669 201.224 184.605 201.15C184.541 201.076 184.494 200.99 184.467 200.896C184.44 200.803 184.433 200.705 184.447 200.608C184.379 199.708 184.035 198.85 183.461 198.154C182.888 197.458 182.113 196.957 181.243 196.72C180.914 196.602 180.56 196.566 180.214 196.615C179.867 196.664 179.537 196.797 179.254 197.002C178.379 197.695 178.026 199.237 178.266 201.442C178.42 202.759 178.853 204.027 179.534 205.163C180.215 206.299 181.13 207.277 182.217 208.032C182.292 208.078 182.356 208.139 182.407 208.21C182.458 208.281 182.494 208.362 182.514 208.447C182.534 208.533 182.536 208.621 182.522 208.708C182.507 208.794 182.476 208.877 182.429 208.951C182.382 209.046 182.312 209.128 182.226 209.189C182.14 209.251 182.04 209.29 181.935 209.305Z" fill="black"/>
<path d="M213.109 247.724C207.126 247.724 204.444 246.31 204.303 246.169C204.116 246.064 203.978 245.889 203.92 245.682C203.862 245.475 203.888 245.253 203.993 245.066C204.098 244.878 204.272 244.74 204.479 244.682C204.685 244.624 204.906 244.65 205.093 244.755C205.093 244.755 208.847 246.763 217.414 245.872C217.616 245.867 217.813 245.938 217.965 246.071C218.117 246.205 218.213 246.391 218.234 246.592C218.256 246.794 218.201 246.996 218.08 247.159C217.959 247.321 217.782 247.432 217.583 247.47C216.098 247.637 214.604 247.722 213.109 247.724Z" fill="black"/>
<path d="M206.011 166.445C205.874 166.422 205.747 166.359 205.646 166.263C205.545 166.167 205.476 166.043 205.446 165.907C205.446 165.907 205.15 165.031 203.358 163.942C202.3 163.383 201.107 163.133 199.914 163.221C199.727 163.24 199.54 163.183 199.395 163.064C199.249 162.944 199.157 162.772 199.138 162.584C199.119 162.397 199.176 162.21 199.295 162.064C199.414 161.918 199.586 161.825 199.773 161.807C201.243 161.707 202.711 162.025 204.007 162.726C206.35 164.14 206.688 165.427 206.731 165.554C206.765 165.73 206.729 165.912 206.632 166.062C206.534 166.213 206.383 166.319 206.208 166.36C206.149 166.402 206.082 166.431 206.011 166.445Z" fill="black"/>
<path d="M217.668 168.75C217.543 168.731 217.425 168.677 217.329 168.594C217.206 168.467 217.137 168.297 217.137 168.12C217.137 167.943 217.206 167.773 217.329 167.647C218.366 166.769 219.7 166.323 221.055 166.402C222.553 166.382 224.024 166.8 225.289 167.604C225.363 167.654 225.427 167.718 225.477 167.793C225.526 167.868 225.561 167.952 225.578 168.04C225.595 168.128 225.594 168.218 225.576 168.306C225.558 168.394 225.523 168.478 225.472 168.552C225.371 168.702 225.216 168.807 225.04 168.844C224.863 168.881 224.679 168.847 224.527 168.75C223.513 168.109 222.338 167.771 221.14 167.774C220.139 167.715 219.147 167.989 218.317 168.552C218.235 168.638 218.132 168.701 218.018 168.736C217.905 168.771 217.784 168.775 217.668 168.75Z" fill="black"/>
<path d="M193 59.8557C193 26.8101 149.796 0 96.4957 0C43.1954 0 0 26.7904 0 59.8557C0 92.921 43.204 119.711 96.4957 119.711C110.67 119.749 124.731 117.784 137.956 113.917L150.264 127.177C150.618 127.511 151.104 127.748 151.651 127.854C152.198 127.96 152.775 127.928 153.296 127.763C153.816 127.598 154.252 127.309 154.538 126.94C154.824 126.571 154.943 126.142 154.879 125.717L150.95 109.273C176.338 98.4593 193 80.3579 193 59.8557Z" fill="white"/>
<path d="M36.491 51.023H34.605V66.249H36.491V51.023ZM32.259 61.902C29.2 60.959 27.038 58.521 27.038 55.807V55.278H31.707V53.76H27.061V51.092H25.175V53.76H20.483V55.278H25.175V55.807C25.175 58.682 23.082 61.281 20 62.293L20.92 63.765C23.358 62.937 25.244 61.143 26.141 58.866C27.084 60.982 28.97 62.615 31.362 63.374L32.259 61.902ZM25.106 69.63V64.846H23.22V71.171H37.112V69.63H25.106Z" fill="black"/>
<path d="M59.3972 61.212H56.3382C56.9132 58.245 56.9132 56.06 56.9132 54.128V52.334H43.0672V53.852H55.0732V54.128C55.0732 56.06 55.0732 58.245 54.4292 61.212H40.7442V62.753H49.0702V71.654H50.9792V62.753H59.3972V61.212Z" fill="black"/>
<path d="M74.0234 60.062C70.8954 60.614 68.2504 60.729 64.6394 60.729V57.877H72.0224V52.288H62.7304V53.829H70.1594V56.428H62.7764V62.27H64.4094C68.2274 62.27 70.9414 62.155 74.2074 61.603L74.0234 60.062ZM71.3094 70.159C68.2274 70.159 66.3644 69.308 66.3644 67.859C66.3644 66.41 68.2274 65.559 71.3094 65.559C74.3914 65.559 76.2314 66.41 76.2314 67.859C76.2314 69.308 74.3914 70.159 71.3094 70.159ZM71.3094 64.087C67.1004 64.087 64.5244 65.467 64.5244 67.859C64.5244 70.251 67.1004 71.608 71.3094 71.608C75.4954 71.608 78.0944 70.251 78.0944 67.859C78.0944 65.467 75.4954 64.087 71.3094 64.087ZM77.8874 56.175V51.023H76.0014V63.443H77.8874V57.739H80.9464V56.175H77.8874Z" fill="black"/>
<path d="M89.1012 52.449V53.967H96.5992C96.3232 57.164 93.4482 59.763 88.2502 60.89L89.0092 62.408C95.0812 61.005 98.6922 57.624 98.6922 52.449H89.1012ZM93.0802 67.813H104.051V66.41H93.0802V64.363H104.281V62.96H91.1942V71.355H104.741V69.929H93.0802V67.813ZM104.189 55.784V51H102.303V62.017H104.189V57.348H107.248V55.784H104.189Z" fill="black"/>
<path d="M124.335 51V71.677H126.221V51H124.335ZM115.342 52.587C112.283 52.587 110.098 55.393 110.098 59.786C110.098 64.179 112.283 66.985 115.342 66.985C118.401 66.985 120.586 64.179 120.586 59.786C120.586 55.393 118.401 52.587 115.342 52.587ZM115.342 54.289C117.343 54.289 118.769 56.451 118.769 59.786C118.769 63.144 117.343 65.306 115.342 65.306C113.318 65.306 111.892 63.144 111.892 59.786C111.892 56.451 113.318 54.289 115.342 54.289Z" fill="black"/>
<path d="M141.69 65.467C139.827 65.467 138.47 64.133 138.47 62.293C138.47 60.43 139.827 59.096 141.69 59.096C143.576 59.096 144.933 60.43 144.933 62.293C144.933 64.133 143.576 65.467 141.69 65.467ZM141.69 57.532C138.792 57.532 136.699 59.51 136.699 62.293C136.699 65.099 138.792 67.031 141.69 67.031C144.634 67.031 146.727 65.099 146.727 62.293C146.727 59.51 144.634 57.532 141.69 57.532ZM142.61 51.253H140.724V54.312H135.526V55.83H147.693V54.312H142.61V51.253ZM154.915 59.487H151.534V51.023H149.648V71.631H151.534V61.074H154.915V59.487Z" fill="black"/>
<path d="M158.018 53.231V54.749H165.769C165.378 59.648 162.618 63.604 157.075 66.249L158.087 67.79C164.941 64.432 167.678 59.188 167.678 53.231H158.018ZM171.841 51V71.631H173.727V51H171.841Z" fill="black"/>
</svg>
